<svg width="20" height="16" viewBox="0 0 20 16" fill="none" xmlns="http://www.w3.org/2000/svg">
<path d="M0.832031 15.5C1.66666 12.6263 4.14924 10.5417 7.08203 10.5417C9.1928 10.5417 11.0704 11.6215 12.2682 13.2981M13.332 15.5C13.0981 14.6946 12.7347 13.9511 12.2682 13.2981M19.1654 15.5C18.6089 13.6405 16.9539 12.2917 14.9987 12.2917C13.9654 12.2917 13.016 12.6684 12.2682 13.2981M10.5543 4.87504C10.5543 6.83105 8.99969 8.41671 7.08203 8.41671C5.16438 8.41671 3.60981 6.83105 3.60981 4.87504C3.60981 2.91903 5.16438 1.33337 7.08203 1.33337C8.99969 1.33337 10.5543 2.91903 10.5543 4.87504ZM17.3135 7.79171C17.3135 9.05736 16.2771 10.0834 14.9987 10.0834C13.7203 10.0834 12.6839 9.05736 12.6839 7.79171C12.6839 6.52606 13.7203 5.50004 14.9987 5.50004C16.2771 5.50004 17.3135 6.52606 17.3135 7.79171Z" stroke="white" stroke-width="2"/>
</svg>
