<svg width="20" height="20" viewBox="0 0 20 20" fill="none" xmlns="http://www.w3.org/2000/svg">
<path d="M10 0.833313C8.18705 0.833313 6.41477 1.37093 4.90732 2.37817C3.39987 3.38542 2.22495 4.81706 1.53115 6.49205C0.837346 8.16704 0.655815 10.0101 1.00951 11.7883C1.36321 13.5665 2.23625 15.1998 3.51823 16.4818C4.80021 17.7638 6.43356 18.6368 8.21172 18.9905C9.98988 19.3442 11.833 19.1627 13.508 18.4689C15.183 17.7751 16.6146 16.6002 17.6219 15.0927C18.6291 13.5853 19.1667 11.813 19.1667 9.99998C19.1638 7.56971 18.1972 5.2398 16.4787 3.52133C14.7602 1.80287 12.4303 0.83618 10 0.833313ZM2.54921 10.8333H5.02255C5.07097 12.8594 5.58599 14.847 6.52755 16.6416C5.44038 16.0722 4.50932 15.245 3.81578 14.2324C3.12225 13.2199 2.68738 12.0528 2.54921 10.8333ZM5.02255 9.16665H2.54921C2.68738 7.94716 3.12225 6.7801 3.81578 5.76755C4.50932 4.755 5.44038 3.9278 6.52755 3.35831C5.58599 5.15296 5.07097 7.14058 5.02255 9.16665ZM9.16671 17.2216C7.96421 16.4416 6.85421 14.06 6.68838 10.8333H9.16671V17.2216ZM9.16671 9.16665H6.68838C6.85421 5.93998 7.96421 3.55831 9.16671 2.77831V9.16665ZM10.8334 17.2216V10.8333H13.3117C13.1459 14.06 12.0359 16.4416 10.8334 17.2216ZM10.8334 9.16665V2.77831C12.0359 3.55831 13.1459 5.93998 13.3117 9.16665H10.8334ZM13.4725 16.6416C14.4141 14.847 14.9291 12.8594 14.9775 10.8333H17.4509C17.3127 12.0528 16.8778 13.2199 16.1843 14.2324C15.4908 15.245 14.5597 16.0722 13.4725 16.6416ZM14.9775 9.16665C14.9291 7.14058 14.4141 5.15296 13.4725 3.35831C14.5597 3.9278 15.4908 4.755 16.1843 5.76755C16.8778 6.7801 17.3127 7.94716 17.4509 9.16665H14.9775Z" fill="#17161A"/>
</svg>
