<svg width="190" height="45" viewBox="0 0 190 45" fill="none" xmlns="http://www.w3.org/2000/svg">
<path d="M33.4026 34.5713V43.3594C29.948 40.8537 27.5874 38.7501 23.2775 37.4506C17.4089 35.68 10.3435 36.1023 4.93137 31.2413C0.280075 27.0666 -1.45542 21.0847 1.35756 15.3262C3.53722 10.8673 7.48527 8.44689 7.48527 8.44689C5.19458 11.249 3.80042 14.2257 3.80042 18.3964C3.80042 22.567 5.03419 24.9711 7.61276 27.2697C11.0838 30.3601 16.6522 31.3713 16.6522 31.3713C16.6522 31.3713 12.19 29.5073 9.66492 27.6961C6.01298 25.0767 4.97661 21.9416 4.76276 19.7202C4.33094 15.2166 6.58462 11.5576 8.59566 9.23473C11.0467 6.41233 13.4032 5.03971 16.3561 3.43155C12.9714 6.78188 9.89934 9.97383 10.0844 15.7648C10.3188 23.2696 17.816 25.8524 21.0526 28.6829C16.5164 24.7153 12.0461 21.5599 11.4333 16.3171C10.9933 12.5648 12.7946 9.36062 15.1099 6.81843C19.3294 2.17264 27.4024 0 27.4024 0C27.4024 0 20.8141 4.38182 19.6913 10.4287C18.7454 15.513 20.9169 18.4613 22.821 20.0736C29.0597 25.3529 33.5219 25.227 33.4026 34.5713Z" fill="#A71C20"/>
<path d="M161.686 43.2819H46.5098L47.0156 41.1133H162.188L161.686 43.2819Z" fill="#A71C20"/>
<path d="M182.146 34.8431H175.997L173.995 38.965H164.951L166.02 34.4248L175.845 16.5889H188.533L190.001 34.4248L188.931 38.965H182.146V34.8431ZM178.922 28.8653H182.125L182.113 22.9931L178.922 28.8653Z" fill="url(#paint0_linear_2005_12514)"/>
<path d="M52.8431 16.6252H65.7565C68.1213 16.6252 69.9555 17.0719 71.3003 17.9693C72.6451 18.8628 73.447 19.9836 73.6897 21.2912L70.6217 34.3311C69.684 35.7038 68.3516 36.8246 66.5955 37.6855C64.8394 38.5465 62.7996 38.9647 60.4349 38.9647H47.5215L52.839 16.6211L52.8431 16.6252ZM59.9373 32.991C60.9078 32.991 61.6399 32.7677 62.1416 32.2885L64.4488 22.4202C64.3953 22.2293 64.2061 22.0669 63.8566 21.9085C63.507 21.7501 63.0998 21.6852 62.6146 21.6852H60.6076L57.9633 32.991H59.9373Z" fill="url(#paint1_linear_2005_12514)"/>
<path d="M75.6719 21.133L76.7411 16.5928H85.5132L85.431 29.6002H86.1424L92.6321 16.5928H100.401L99.3314 21.133L89.3749 38.9689H77.2388L75.6719 21.133Z" fill="url(#paint2_linear_2005_12514)"/>
<path d="M107.449 16.5928H120.535L119.112 22.6356H109.789L109.316 24.6498H118.055L116.632 30.6926H107.893L107.359 32.9627H116.842L115.427 38.973H96.9785L100.692 23.1797C100.692 23.1797 102.14 16.6009 107.441 16.6009L107.449 16.5928Z" fill="url(#paint3_linear_2005_12514)"/>
<path d="M122.77 16.5928H128.733C134.684 16.5928 135.128 24.7432 135.128 24.7432H135.905L137.822 16.5928H146.108L140.844 38.9648H131.686L128.515 30.8469H127.705L125.797 38.9648H117.51L122.774 16.5928H122.77Z" fill="url(#paint4_linear_2005_12514)"/>
<path d="M144.034 33.9497C145.745 26.9972 154.994 23.2733 154.994 23.2733L155.146 22.6316H146.761L148.184 16.5889H167.961C167.961 16.5889 167.5 18.6478 166.781 21.6083C165.465 27.0216 155.755 32.2847 155.755 32.2847L155.599 32.9547H164.112L162.697 38.965H142.854C142.854 38.965 142.809 38.9163 144.034 33.9456V33.9497Z" fill="url(#paint5_linear_2005_12514)"/>
<path d="M9.0357 35.2822L7.4318 37.5198L7.07812 43.2824H18.3013L21.6612 38.1209C16.1257 37.8528 9.03159 35.2822 9.03159 35.2822H9.0357Z" fill="url(#paint6_linear_2005_12514)"/>
<path d="M43.5647 9.40137H27.4394L21.9121 17.097C25.0006 21.0889 28.4058 22.1367 30.676 24.423L34.6322 18.3072V43.2864H44.1734L45.7896 36.4111L43.5647 9.40137Z" fill="url(#paint7_linear_2005_12514)"/>
<path d="M168.686 42.0073H166.905L165.803 45.0003H164.882L165.984 42.0073H164.203L164.54 41.0977H169.023L168.686 42.0073Z" fill="#231F20"/>
<path d="M173.608 42.2999C173.485 42.6369 173.271 42.9212 172.975 43.1527C172.675 43.3801 172.37 43.4979 172.054 43.4979H171.219L170.664 45.0004H169.742L170.298 43.4979H169.446C169.13 43.4979 168.908 43.3801 168.78 43.1446C168.657 42.9131 168.653 42.6329 168.776 42.2999L169.22 41.0938H170.141L169.697 42.2999C169.627 42.4907 169.656 42.5882 169.784 42.5882H172.391C172.518 42.5882 172.617 42.4907 172.687 42.2999L173.131 41.0938H174.052L173.608 42.2999Z" fill="#231F20"/>
<path d="M177.531 45.0003H176.273L175.586 43.7211H174.291L173.818 45.0003H172.896L174.336 41.0977H178.165C178.498 41.0977 178.724 41.2276 178.835 41.4835C178.95 41.7312 178.938 42.0398 178.798 42.4134C178.662 42.787 178.444 43.0957 178.148 43.3434C177.844 43.5952 177.527 43.7251 177.194 43.7251H176.84L177.527 45.0043L177.531 45.0003ZM174.624 42.8114H177.478C177.646 42.8114 177.778 42.6774 177.877 42.4134C177.975 42.1454 177.943 42.0114 177.774 42.0114H174.916L174.62 42.8155L174.624 42.8114Z" fill="#231F20"/>
<path d="M183.359 42.0073H180.068L179.855 42.5921H182.931L182.598 43.4977H179.522L179.304 44.0906H182.594L182.256 45.0003H178.041L179.48 41.0977H183.696L183.359 42.0073Z" fill="#231F20"/>
<path d="M186.981 44.6471C186.681 44.8827 186.373 45.0004 186.052 45.0004H182.643L182.98 44.0908H186.389C186.517 44.0908 186.619 43.9933 186.689 43.7943C186.763 43.5953 186.735 43.4979 186.607 43.4979H184.127C183.811 43.4979 183.588 43.3801 183.457 43.1486C183.325 42.9212 183.325 42.6369 183.449 42.2999C183.572 41.9669 183.778 41.6867 184.07 41.4552C184.378 41.2115 184.691 41.0938 185.011 41.0938H188.417L188.079 42.0034H184.674C184.547 42.0034 184.448 42.1009 184.374 42.2999C184.304 42.4907 184.333 42.5882 184.46 42.5882H186.94C187.257 42.5882 187.479 42.706 187.606 42.9415C187.73 43.173 187.73 43.4573 187.606 43.7943C187.483 44.1314 187.273 44.4157 186.981 44.6471Z" fill="#231F20"/>
<path style="mix-blend-mode:difference" d="M9.01104 25.4301C6.45714 22.8432 5.64697 18.8269 6.91775 14.303C8.18853 9.77493 13.3621 5.65301 16.3561 3.43164C13.4032 5.0398 11.0468 6.41242 8.59567 9.23482C6.58052 11.5577 4.33095 15.2126 4.76277 19.7203C4.97663 21.9417 6.00888 25.0768 9.66494 27.6961C12.19 29.5074 16.6522 31.3714 16.6522 31.3714C14.2052 29.5967 12.334 28.8007 9.01515 25.4342L9.01104 25.4301Z" fill="url(#paint8_linear_2005_12514)"/>
<path style="mix-blend-mode:difference" d="M14.4515 9.81951C16.5942 5.25088 23.2524 1.93304 27.402 0C27.402 0 19.3249 2.17264 15.1054 6.81031C12.7901 9.35656 10.9929 12.5566 11.4288 16.309C12.0416 21.5518 16.5119 24.7112 21.0481 28.6748C20.024 27.3671 15.492 21.5111 14.4022 18.9121C13.3123 16.3131 13.1602 12.5648 14.4474 9.81545L14.4515 9.81951Z" fill="url(#paint9_linear_2005_12514)"/>
<path style="mix-blend-mode:difference" d="M18.9881 34.8682C14.6329 34.2631 8.27899 32.4356 5.28505 29.4467C2.45973 26.6284 0.724231 22.9735 1.67834 17.9297C2.63246 12.89 5.01363 11.2087 7.48527 8.44727C7.48527 8.44727 3.53722 10.8676 1.35756 15.3266C-1.45542 21.0851 0.280075 27.067 4.93137 31.2458C10.3435 36.1108 17.4089 35.6885 23.2775 37.455C27.5011 38.7261 29.8535 40.7729 33.1928 43.2095C30.0591 37.4672 23.2446 35.4611 18.9881 34.8682Z" fill="url(#paint10_linear_2005_12514)"/>
<path style="mix-blend-mode:multiply" d="M33.4026 34.5713V43.3594C29.948 40.8537 27.5874 38.7501 23.2775 37.4506C17.4089 35.68 10.3435 36.1023 4.93137 31.2413C0.280075 27.0666 -1.45542 21.0847 1.35756 15.3262C3.53722 10.8673 7.48527 8.44689 7.48527 8.44689C5.19458 11.249 3.80042 14.2257 3.80042 18.3964C3.80042 22.567 5.03419 24.9711 7.61276 27.2697C11.0838 30.3601 16.6522 31.3713 16.6522 31.3713C16.6522 31.3713 12.19 29.5073 9.66492 27.6961C6.01298 25.0767 4.97661 21.9416 4.76276 19.7202C4.33094 15.2166 6.58462 11.5576 8.59566 9.23473C11.0467 6.41233 13.4032 5.03971 16.3561 3.43155C12.9714 6.78188 9.89934 9.97383 10.0844 15.7648C10.3188 23.2696 17.816 25.8524 21.0526 28.6829C16.5164 24.7153 12.0461 21.5599 11.4333 16.3171C10.9933 12.5648 12.7946 9.36062 15.1099 6.81843C19.3294 2.17264 27.4024 0 27.4024 0C27.4024 0 20.8141 4.38182 19.6913 10.4287C18.7454 15.513 20.9169 18.4613 22.821 20.0736C29.0597 25.3529 33.5219 25.227 33.4026 34.5713Z" fill="url(#paint11_linear_2005_12514)"/>
<path opacity="0.5" d="M7.4856 8.44727C7.30465 8.67062 7.12781 8.89804 6.95508 9.12139C7.12781 8.89398 7.30465 8.67062 7.4856 8.44727Z" fill="#ED1C24"/>
<path opacity="0.5" d="M9.23255 17.3042C9.77541 23.8911 15.6276 26.88 21.052 28.6791C17.8113 25.8485 10.3183 23.2698 10.0838 15.761C9.9029 9.97002 12.9709 6.77806 16.3555 3.42773C16.2897 3.47647 16.2239 3.52926 16.154 3.57799C12.5884 6.86335 8.68969 10.7172 9.23255 17.3001V17.3042Z" fill="#ED1C24"/>
<path opacity="0.5" d="M2.879 21.1132C3.78787 25.8199 7.958 31.5419 16.6478 31.3673C16.6478 31.3673 11.0794 30.3602 7.60843 27.2657C5.02986 24.9671 3.7961 22.4615 3.7961 18.3924C3.7961 14.5547 4.98051 11.7283 6.95454 9.12109C4.14977 12.7679 2.02358 16.6786 2.879 21.1092V21.1132Z" fill="#ED1C24"/>
<path opacity="0.5" d="M33.4035 34.5713C33.5187 25.227 29.0607 25.3529 22.8219 20.0736C20.9178 18.4613 18.7464 15.513 19.6923 10.4287C20.815 4.38182 27.4033 0 27.4033 0C23.4799 2.33914 17.4016 6.37172 17.7635 13.8074C18.1254 21.2472 23.2784 22.697 27.9297 25.7711C32.5111 28.8007 32.9717 36.7724 33.3871 43.3472C33.3912 43.3512 33.3994 43.3553 33.4035 43.3594V34.5713Z" fill="#ED1C24"/>
<path d="M82.0535 10.5225V13.5195H80.9143V10.8961L80.5359 10.5185H77.8792V13.5155H76.7441V9.71437C76.7441 9.51539 76.8716 9.4098 77.1266 9.39355H80.9184L82.0576 10.5144L82.0535 10.5225Z" fill="#A71C20"/>
<path d="M89.9248 10.5225V13.1459C89.9248 13.3815 89.7973 13.5073 89.5423 13.5236H84.9938C84.7388 13.5073 84.6113 13.3815 84.6113 13.1459V9.72249C84.6113 9.5235 84.7388 9.41792 84.9938 9.40167H88.7856L89.9248 10.5225ZM88.7856 10.9002L88.4072 10.5225H85.7505V12.3987H88.7856V10.9002ZM87.0172 9.06055L86.7951 9.2839H85.9685L86.6059 8.65445H87.4325L88.07 9.2839H87.2351L87.0131 9.06055H87.0172ZM87.8644 9.02806L88.5841 8.31738H89.5176L88.7979 9.02806H87.8644Z" fill="#A71C20"/>
<path d="M93.6214 13.5233H92.4863V9.40137H93.6214V13.5233Z" fill="#A71C20"/>
<path d="M106.436 10.5224V12.3985L105.297 13.5194H101.506C101.251 13.5031 101.123 13.3772 101.123 13.1417V9.71828C101.123 9.51929 101.251 9.4137 101.506 9.39746H105.297L106.436 10.5183V10.5224ZM105.297 12.0209V10.9L104.919 10.5224H102.262V12.3985H104.919L105.297 12.0209Z" fill="#A71C20"/>
<path d="M114.307 10.5225V13.5195H113.168V12.021H110.133V13.5195H108.998V9.71844C108.998 9.51945 109.126 9.41386 109.381 9.39762H113.172L114.311 10.5185L114.307 10.5225ZM113.168 10.9002L112.79 10.5225H110.133V10.9002H113.168ZM111.169 8.68288C111.169 8.74379 111.19 8.79659 111.235 8.84126C111.281 8.88593 111.334 8.90623 111.396 8.90623C111.457 8.90623 111.511 8.88593 111.552 8.84126C111.593 8.79659 111.618 8.74379 111.618 8.68288C111.618 8.6707 111.618 8.65851 111.618 8.65039H112.448L111.811 9.27985H110.984L110.347 8.65039H111.178C111.178 8.65039 111.178 8.67476 111.178 8.68288H111.169ZM112.021 13.6617V14.3196H111.281V13.6617H112.021Z" fill="#A71C20"/>
<path d="M122.18 10.5225V13.5195H121.041V10.8961L120.663 10.5185H120.095V13.5155H118.956V10.5185H118.006V13.5155H116.871V9.71437C116.871 9.51539 116.999 9.4098 117.254 9.39355H121.045L122.185 10.5144L122.18 10.5225Z" fill="#A71C20"/>
<path d="M129.643 11.0339V9.72219C129.643 9.5232 129.771 9.41761 130.026 9.40137H133.818L134.957 10.5222V12.3984L133.818 13.5192H130.026C129.771 13.503 129.643 13.3771 129.643 13.1416V11.704H129.24V11.0339H129.643ZM132.238 11.0339L132.695 11.704H130.778V12.3984H133.435L133.813 12.0207V10.8999L133.435 10.5222H130.778V11.0339H132.238Z" fill="#A71C20"/>
<path d="M142.829 10.7622V13.5237H137.898C137.643 13.5074 137.516 13.3816 137.516 13.146V9.40177H138.651V12.3988H141.686V9.40177H142.183L142.253 9.10938H143.392L142.994 10.7622H142.825H142.829Z" fill="#A71C20"/>
<path d="M150.886 10.7619V13.1457C150.886 13.3813 150.758 13.5072 150.503 13.5234H145.955C145.7 13.5072 145.572 13.3813 145.572 13.1457V9.7223C145.572 9.52332 145.7 9.41773 145.955 9.40148H149.747L150.01 9.66139L150.145 9.10503H151.285L150.886 10.7579V10.7619ZM149.747 10.9041L149.368 10.5264H146.711V12.4026H149.747V10.9041ZM147.6 9.26341L146.88 8.55273H147.814L148.533 9.26341H147.6Z" fill="#A71C20"/>
<path d="M158.887 10.5225V13.5195H157.748V10.8961L157.37 10.5185H154.713V13.5155H153.578V9.71437C153.578 9.51539 153.706 9.4098 153.961 9.39355H157.752L158.892 10.5144L158.887 10.5225Z" fill="#A71C20"/>
<path d="M166.761 9.40152V10.5224H162.586V12.3985H165.622V12.0209H162.813V10.9H166.378C166.633 10.9163 166.761 11.0422 166.761 11.2736V13.1417C166.761 13.3772 166.633 13.5031 166.378 13.5194H161.83C161.575 13.5031 161.447 13.3772 161.447 13.1417V9.71828C161.447 9.51929 161.575 9.4137 161.83 9.39746H166.761V9.40152Z" fill="#A71C20"/>
<path d="M179.501 11.6469L180.632 13.5069L179.349 13.5231L178.374 12.0206H176.482L175.512 13.511L174.229 13.5028L175.359 11.6348V11.2652L174.229 9.40527L175.512 9.42152L176.486 10.9119H178.374L179.349 9.4337L180.632 9.42558L179.501 11.2855V11.6591V11.6469Z" fill="#A71C20"/>
<path d="M188.551 10.5224V13.5194H187.412V12.0209H184.377V13.5194H183.242V9.71828C183.242 9.51929 183.37 9.4137 183.625 9.39746H187.416L188.556 10.5183L188.551 10.5224ZM187.412 10.9L187.034 10.5224H184.377V10.9H187.412Z" fill="#A71C20"/>
<defs>
<linearGradient id="paint0_linear_2005_12514" x1="177.474" y1="18.4163" x2="177.474" y2="38.9122" gradientUnits="userSpaceOnUse">
<stop/>
<stop offset="0.49" stop-color="#58595B"/>
<stop offset="1" stop-color="#101010"/>
</linearGradient>
<linearGradient id="paint1_linear_2005_12514" x1="60.6076" y1="18.4161" x2="60.6076" y2="38.9119" gradientUnits="userSpaceOnUse">
<stop/>
<stop offset="0.49" stop-color="#58595B"/>
<stop offset="1" stop-color="#231F20"/>
</linearGradient>
<linearGradient id="paint2_linear_2005_12514" x1="88.0363" y1="16.5928" x2="88.0363" y2="38.9689" gradientUnits="userSpaceOnUse">
<stop/>
<stop offset="0.529167" stop-color="#58595B"/>
<stop offset="1"/>
</linearGradient>
<linearGradient id="paint3_linear_2005_12514" x1="111.039" y1="17.868" x2="110.237" y2="38.986" gradientUnits="userSpaceOnUse">
<stop stop-color="#17161A"/>
<stop offset="0.503125" stop-color="#58595B"/>
<stop offset="1" stop-color="#17161A"/>
</linearGradient>
<linearGradient id="paint4_linear_2005_12514" x1="131.809" y1="16.5928" x2="131.809" y2="38.9648" gradientUnits="userSpaceOnUse">
<stop stop-color="#17161A"/>
<stop offset="0.539583" stop-color="#58595B"/>
<stop offset="1"/>
</linearGradient>
<linearGradient id="paint5_linear_2005_12514" x1="155.407" y1="16.5889" x2="155.407" y2="38.965" gradientUnits="userSpaceOnUse">
<stop stop-color="#17161A"/>
<stop offset="0.544792" stop-color="#58595B"/>
<stop offset="1"/>
</linearGradient>
<linearGradient id="paint6_linear_2005_12514" x1="14.3697" y1="18.4169" x2="14.3697" y2="38.9128" gradientUnits="userSpaceOnUse">
<stop/>
<stop offset="0.49" stop-color="#58595B"/>
<stop offset="1" stop-color="#231F20"/>
</linearGradient>
<linearGradient id="paint7_linear_2005_12514" x1="33.8509" y1="18.4168" x2="33.8509" y2="38.9127" gradientUnits="userSpaceOnUse">
<stop/>
<stop offset="0.49" stop-color="#58595B"/>
<stop offset="1" stop-color="#231F20"/>
</linearGradient>
<linearGradient id="paint8_linear_2005_12514" x1="4.7052" y1="17.3974" x2="16.6481" y2="17.3974" gradientUnits="userSpaceOnUse">
<stop stop-color="#F89521" stop-opacity="0"/>
<stop offset="0.03" stop-color="#F59121" stop-opacity="0.04"/>
<stop offset="0.28" stop-color="#DC6F22" stop-opacity="0.38"/>
<stop offset="0.51" stop-color="#C85522" stop-opacity="0.65"/>
<stop offset="0.72" stop-color="#BA4123" stop-opacity="0.84"/>
<stop offset="0.89" stop-color="#B23623" stop-opacity="0.96"/>
<stop offset="1" stop-color="#AF3224"/>
</linearGradient>
<linearGradient id="paint9_linear_2005_12514" x1="11.363" y1="14.3394" x2="27.402" y2="14.3394" gradientUnits="userSpaceOnUse">
<stop stop-color="#F89521" stop-opacity="0"/>
<stop offset="0.03" stop-color="#F59121" stop-opacity="0.04"/>
<stop offset="0.28" stop-color="#DC6F22" stop-opacity="0.38"/>
<stop offset="0.51" stop-color="#C85522" stop-opacity="0.65"/>
<stop offset="0.72" stop-color="#BA4123" stop-opacity="0.84"/>
<stop offset="0.89" stop-color="#B23623" stop-opacity="0.96"/>
<stop offset="1" stop-color="#AF3224"/>
</linearGradient>
<linearGradient id="paint10_linear_2005_12514" x1="0.000421566" y1="25.8284" x2="33.197" y2="25.8284" gradientUnits="userSpaceOnUse">
<stop stop-color="#F89521" stop-opacity="0"/>
<stop offset="0.03" stop-color="#F59121" stop-opacity="0.04"/>
<stop offset="0.28" stop-color="#DC6F22" stop-opacity="0.38"/>
<stop offset="0.51" stop-color="#C85522" stop-opacity="0.65"/>
<stop offset="0.72" stop-color="#BA4123" stop-opacity="0.84"/>
<stop offset="0.89" stop-color="#B23623" stop-opacity="0.96"/>
<stop offset="1" stop-color="#AF3224"/>
</linearGradient>
<linearGradient id="paint11_linear_2005_12514" x1="0.000421566" y1="21.6817" x2="33.4067" y2="21.6817" gradientUnits="userSpaceOnUse">
<stop stop-color="#F89521" stop-opacity="0"/>
<stop offset="0.01" stop-color="#F69221" stop-opacity="0.02"/>
<stop offset="0.2" stop-color="#E07521" stop-opacity="0.32"/>
<stop offset="0.38" stop-color="#CE5D22" stop-opacity="0.56"/>
<stop offset="0.55" stop-color="#C14A23" stop-opacity="0.75"/>
<stop offset="0.72" stop-color="#B73C23" stop-opacity="0.89"/>
<stop offset="0.87" stop-color="#B13423" stop-opacity="0.97"/>
<stop offset="1" stop-color="#AF3224"/>
</linearGradient>
</defs>
</svg>
