<svg width="226" height="54" viewBox="0 0 226 54" fill="none" xmlns="http://www.w3.org/2000/svg">
<path d="M39.7315 41.4856V52.0312C35.6224 49.0245 32.8145 46.5001 27.6879 44.9407C20.7074 42.816 12.3033 43.3228 5.86574 37.4896C0.333142 32.4799 -1.73119 25.3017 1.61479 18.3915C4.20743 13.0407 8.90353 10.1363 8.90353 10.1363C6.17881 13.4988 4.5205 17.0708 4.5205 22.0756C4.5205 27.0804 5.98803 29.9653 9.05518 32.7236C13.1838 36.4321 19.8073 37.6455 19.8073 37.6455C19.8073 37.6455 14.4997 35.4087 11.4962 33.2353C7.15228 30.092 5.91955 26.3299 5.66518 23.6643C5.15154 18.2599 7.83223 13.8691 10.2243 11.0817C13.1398 7.69479 15.9428 6.04765 19.4551 4.11786C15.4292 8.13825 11.775 11.9686 11.9951 18.9178C12.274 27.9235 21.1917 31.0228 25.0415 34.4195C19.6459 29.6583 14.3285 25.8719 13.5996 19.5805C13.0762 15.0777 15.2188 11.2327 17.9729 8.18211C22.9918 2.60717 32.5944 0 32.5944 0C32.5944 0 24.7578 5.25819 23.4223 12.5144C22.2972 18.6156 24.8801 22.1536 27.145 24.0883C34.5658 30.4234 39.8734 30.2724 39.7315 41.4856Z" fill="#A71C20"/>
<path d="M192.321 51.9382H55.3223L55.924 49.3359H192.918L192.321 51.9382Z" fill="#A71C20"/>
<path d="M216.658 41.8113H209.344L206.962 46.7576H196.205L197.477 41.3094L209.163 19.9062H224.255L226.001 41.3094L224.729 46.7576H216.658V41.8113ZM212.822 34.638H216.633L216.618 27.5913L212.822 34.638Z" fill="url(#paint0_linear_2496_6493)"/>
<path d="M62.8553 19.9502H78.2155C81.0283 19.9502 83.21 20.4862 84.8096 21.5632C86.4092 22.6353 87.3631 23.9803 87.6517 25.5495L84.0025 41.1974C82.8872 42.8445 81.3022 44.1895 79.2134 45.2226C77.1246 46.2558 74.6983 46.7577 71.8856 46.7577H56.5254L62.8505 19.9453L62.8553 19.9502ZM71.2937 39.5892C72.4481 39.5892 73.3189 39.3212 73.9157 38.7461L76.6599 26.9043C76.5963 26.6752 76.3713 26.4803 75.9555 26.2902C75.5397 26.1002 75.0554 26.0222 74.4782 26.0222H72.091L68.9456 39.5892H71.2937Z" fill="url(#paint1_linear_2496_6493)"/>
<path d="M90.0098 25.3584L91.2816 19.9102H101.716L101.618 35.519H102.464L110.183 19.9102H119.424L118.152 25.3584L106.309 46.7615H91.8735L90.0098 25.3584Z" fill="url(#paint2_linear_2496_6493)"/>
<path d="M127.808 19.9102H143.374L141.681 27.1615H130.591L130.029 29.5786H140.424L138.731 36.8299H128.336L127.7 39.554H138.981L137.298 46.7664H115.354L119.771 27.8145C119.771 27.8145 121.493 19.9199 127.798 19.9199L127.808 19.9102Z" fill="url(#paint3_linear_2496_6493)"/>
<path d="M146.03 19.9102H153.123C160.201 19.9102 160.73 29.6907 160.73 29.6907H161.654L163.934 19.9102H173.791L167.529 46.7566H156.635L152.864 37.0151H151.9L149.63 46.7566H139.773L146.035 19.9102H146.03Z" fill="url(#paint4_linear_2496_6493)"/>
<path d="M171.326 40.7392C173.361 32.3963 184.363 27.9275 184.363 27.9275L184.544 27.1576H174.569L176.262 19.9062H199.786C199.786 19.9062 199.239 22.377 198.382 25.9295C196.817 32.4255 185.268 38.7412 185.268 38.7412L185.082 39.5453H195.208L193.525 46.7576H169.922C169.922 46.7576 169.868 46.6991 171.326 40.7343V40.7392Z" fill="url(#paint5_linear_2496_6493)"/>
<path d="M10.7484 42.3379L8.84061 45.023L8.41992 51.9381H21.7696L25.7662 45.7443C19.1818 45.4226 10.7435 42.3379 10.7435 42.3379H10.7484Z" fill="url(#paint6_linear_2496_6493)"/>
<path d="M51.8196 11.2812H32.639L26.0645 20.516C29.7382 25.3063 33.7886 26.5636 36.4888 29.3072L41.1947 21.9682V51.9433H52.5436L54.4661 43.6929L51.8196 11.2812Z" fill="url(#paint7_linear_2496_6493)"/>
<path d="M200.646 50.408H198.528L197.217 53.9996H196.122L197.433 50.408H195.314L195.716 49.3164H201.048L200.646 50.408Z" fill="#231F20"/>
<path d="M206.502 50.7598C206.355 51.1643 206.101 51.5054 205.749 51.7832C205.392 52.0561 205.03 52.1974 204.653 52.1974H203.66L202.999 54.0005H201.904L202.564 52.1974H201.551C201.175 52.1974 200.911 52.0561 200.759 51.7735C200.612 51.4957 200.607 51.1594 200.754 50.7598L201.282 49.3125H202.378L201.85 50.7598C201.767 50.9889 201.801 51.1058 201.953 51.1058H205.054C205.206 51.1058 205.323 50.9889 205.406 50.7598L205.935 49.3125H207.03L206.502 50.7598Z" fill="#231F20"/>
<path d="M211.169 53.9996H209.672L208.855 52.4645H207.315L206.752 53.9996H205.656L207.368 49.3164H211.923C212.319 49.3164 212.588 49.4724 212.72 49.7794C212.857 50.0766 212.842 50.447 212.676 50.8953C212.515 51.3437 212.255 51.714 211.903 52.0113C211.541 52.3134 211.164 52.4694 210.768 52.4694H210.347L211.164 54.0044L211.169 53.9996ZM207.711 51.3729H211.106C211.306 51.3729 211.463 51.2121 211.58 50.8953C211.698 50.5737 211.658 50.4129 211.458 50.4129H208.058L207.706 51.3778L207.711 51.3729Z" fill="#231F20"/>
<path d="M218.1 50.408H214.187L213.933 51.1097H217.592L217.195 52.1965H213.536L213.277 52.908H217.191L216.789 53.9996H211.775L213.488 49.3164H218.502L218.1 50.408Z" fill="#231F20"/>
<path d="M222.411 53.5766C222.054 53.8592 221.687 54.0005 221.305 54.0005H217.25L217.651 52.9089H221.706C221.858 52.9089 221.98 52.792 222.064 52.5532C222.152 52.3144 222.117 52.1974 221.966 52.1974H219.016C218.639 52.1974 218.375 52.0561 218.219 51.7783C218.062 51.5054 218.062 51.1643 218.209 50.7598C218.356 50.3602 218.6 50.024 218.947 49.7462C219.314 49.4538 219.686 49.3125 220.068 49.3125H224.118L223.717 50.4041H219.667C219.515 50.4041 219.398 50.5211 219.309 50.7598C219.226 50.9889 219.261 51.1058 219.412 51.1058H222.362C222.739 51.1058 223.003 51.2472 223.154 51.5298C223.301 51.8076 223.301 52.1487 223.154 52.5532C223.008 52.9577 222.758 53.2988 222.411 53.5766Z" fill="#231F20"/>
<path style="mix-blend-mode:difference" d="M10.7187 30.5153C7.68095 27.4111 6.71727 22.5915 8.22883 17.1628C9.74039 11.7291 15.8942 6.78283 19.4555 4.11719C15.9432 6.04698 13.1402 7.69412 10.2247 11.081C7.82771 13.8685 5.15191 18.2544 5.66554 23.6636C5.91991 26.3293 7.14775 30.0914 11.4965 33.2346C14.5001 35.408 19.8077 37.6449 19.8077 37.6449C16.8971 35.5153 14.6713 34.5601 10.7236 30.5202L10.7187 30.5153Z" fill="url(#paint8_linear_2496_6493)"/>
<path style="mix-blend-mode:difference" d="M17.191 11.7834C19.7396 6.30106 27.6594 2.31965 32.5952 0C32.5952 0 22.9877 2.60717 17.9688 8.17237C15.2147 11.2279 13.077 15.068 13.5955 19.5708C14.3244 25.8621 19.6417 29.6535 25.0374 34.4097C23.8193 32.8405 18.4286 25.8134 17.1323 22.6945C15.8359 19.5757 15.6549 15.0777 17.1861 11.7785L17.191 11.7834Z" fill="url(#paint9_linear_2496_6493)"/>
<path style="mix-blend-mode:difference" d="M22.5858 41.8418C17.4054 41.1157 9.84764 38.9228 6.28643 35.3361C2.92578 31.9541 0.861454 27.5682 1.99635 21.5157C3.13124 15.468 5.96358 13.4505 8.90353 10.1367C8.90353 10.1367 4.20743 13.0412 1.61479 18.3919C-1.73119 25.3021 0.333142 32.4804 5.86574 37.4949C12.3033 43.333 20.7074 42.8262 27.6879 44.946C32.7118 46.4714 35.5099 48.9274 39.482 51.8514C35.7545 44.9607 27.6488 42.5533 22.5858 41.8418Z" fill="url(#paint10_linear_2496_6493)"/>
<path style="mix-blend-mode:multiply" d="M39.7315 41.4856V52.0312C35.6224 49.0245 32.8145 46.5001 27.6879 44.9407C20.7074 42.816 12.3033 43.3228 5.86574 37.4896C0.333142 32.4799 -1.73119 25.3017 1.61479 18.3915C4.20743 13.0407 8.90353 10.1363 8.90353 10.1363C6.17881 13.4988 4.5205 17.0708 4.5205 22.0756C4.5205 27.0804 5.98803 29.9653 9.05518 32.7236C13.1838 36.4321 19.8073 37.6455 19.8073 37.6455C19.8073 37.6455 14.4997 35.4087 11.4962 33.2353C7.15228 30.092 5.91955 26.3299 5.66518 23.6643C5.15154 18.2599 7.83223 13.8691 10.2243 11.0817C13.1398 7.69479 15.9428 6.04765 19.4551 4.11786C15.4292 8.13825 11.775 11.9686 11.9951 18.9178C12.274 27.9235 21.1917 31.0228 25.0415 34.4195C19.6459 29.6583 14.3285 25.8719 13.5996 19.5805C13.0762 15.0777 15.2188 11.2327 17.9729 8.18211C22.9918 2.60717 32.5944 0 32.5944 0C32.5944 0 24.7578 5.25819 23.4223 12.5144C22.2972 18.6156 24.8801 22.1536 27.145 24.0883C34.5658 30.4234 39.8734 30.2724 39.7315 41.4856Z" fill="url(#paint11_linear_2496_6493)"/>
<path opacity="0.5" d="M8.90448 10.1367C8.68924 10.4047 8.47889 10.6776 8.27344 10.9457C8.47889 10.6728 8.68924 10.4047 8.90448 10.1367Z" fill="#ED1C24"/>
<path opacity="0.5" d="M10.9824 20.765C11.6281 28.6694 18.5891 32.2561 25.0414 34.4149C21.1867 31.0183 12.2739 27.9238 11.995 18.9132C11.7798 11.964 15.4291 8.13368 19.455 4.11328C19.3767 4.17176 19.2984 4.23511 19.2153 4.29359C14.9741 8.23601 10.3367 12.8607 10.9824 20.7602V20.765Z" fill="#ED1C24"/>
<path opacity="0.5" d="M3.42505 25.3359C4.50613 30.9839 9.46639 37.8503 19.8027 37.6407C19.8027 37.6407 13.1792 36.4322 9.05059 32.7188C5.98344 29.9606 4.51591 26.9538 4.51591 22.0708C4.51591 17.4657 5.92474 14.0739 8.27279 10.9453C4.9366 15.3215 2.40756 20.0143 3.42505 25.331V25.3359Z" fill="#ED1C24"/>
<path opacity="0.5" d="M39.7312 41.4856C39.8681 30.2724 34.5655 30.4234 27.1446 24.0883C24.8797 22.1536 22.2969 18.6156 23.422 12.5144C24.7574 5.25819 32.5941 0 32.5941 0C27.9273 2.80697 20.6973 7.64606 21.1278 16.5689C21.5582 25.4966 27.6876 27.2363 33.2202 30.9254C38.6697 34.5608 39.2175 44.1269 39.7116 52.0166C39.7165 52.0215 39.7263 52.0263 39.7312 52.0312V41.4856Z" fill="#ED1C24"/>
<path d="M97.6024 12.6262V16.2227H96.2474V13.0746L95.7973 12.6214H92.6372V16.2178H91.2871V11.6565C91.2871 11.4177 91.4388 11.291 91.742 11.2715H96.2523L97.6073 12.6165L97.6024 12.6262Z" fill="#A71C20"/>
<path d="M106.965 12.6266V15.7747C106.965 16.0574 106.813 16.2084 106.51 16.2279H101.099C100.796 16.2084 100.645 16.0574 100.645 15.7747V11.6666C100.645 11.4278 100.796 11.3011 101.099 11.2816H105.61L106.965 12.6266ZM105.61 13.0798L105.16 12.6266H102V14.878H105.61V13.0798ZM103.506 10.8723L103.242 11.1403H102.259L103.017 10.3849H104L104.759 11.1403H103.765L103.501 10.8723H103.506ZM104.514 10.8333L105.37 9.98047H106.48L105.624 10.8333H104.514Z" fill="#A71C20"/>
<path d="M111.364 16.2276H110.014V11.2812H111.364V16.2276Z" fill="#A71C20"/>
<path d="M126.605 12.6272V14.8786L125.25 16.2236H120.74C120.437 16.2042 120.285 16.0531 120.285 15.7704V11.6623C120.285 11.4235 120.437 11.2968 120.74 11.2773H125.25L126.605 12.6223V12.6272ZM125.25 14.4254V13.0804L124.8 12.6272H121.64V14.8786H124.8L125.25 14.4254Z" fill="#A71C20"/>
<path d="M135.968 12.6274V16.2238H134.613V14.4256H131.002V16.2238H129.652V11.6625C129.652 11.4237 129.804 11.297 130.107 11.2775H134.617L135.973 12.6225L135.968 12.6274ZM134.613 13.0806L134.163 12.6274H131.002V13.0806H134.613ZM132.235 10.4198C132.235 10.4929 132.26 10.5563 132.313 10.6099C132.367 10.6635 132.431 10.6879 132.504 10.6879C132.578 10.6879 132.641 10.6635 132.69 10.6099C132.739 10.5563 132.768 10.4929 132.768 10.4198C132.768 10.4052 132.768 10.3906 132.768 10.3809H133.757L132.998 11.1362H132.015L131.257 10.3809H132.245C132.245 10.3809 132.245 10.4101 132.245 10.4198H132.235ZM133.248 16.3944V17.1839H132.367V16.3944H133.248Z" fill="#A71C20"/>
<path d="M145.331 12.6262V16.2227H143.976V13.0746L143.526 12.6214H142.851V16.2178H141.496V12.6214H140.366V16.2178H139.016V11.6565C139.016 11.4177 139.167 11.291 139.471 11.2715H143.981L145.336 12.6165L145.331 12.6262Z" fill="#A71C20"/>
<path d="M154.21 13.2403V11.6662C154.21 11.4274 154.362 11.3007 154.665 11.2812H159.175L160.53 12.6263V14.8777L159.175 16.2227H154.665C154.362 16.2032 154.21 16.0521 154.21 15.7695V14.0444H153.73V13.2403H154.21ZM157.297 13.2403L157.84 14.0444H155.56V14.8777H158.72L159.17 14.4245V13.0795L158.72 12.6263H155.56V13.2403H157.297Z" fill="#A71C20"/>
<path d="M169.892 12.915V16.2288H164.027C163.724 16.2093 163.572 16.0583 163.572 15.7756V11.2825H164.922V14.8789H168.533V11.2825H169.124L169.208 10.9316H170.563L170.088 12.915H169.888H169.892Z" fill="#A71C20"/>
<path d="M179.476 12.9147V15.7753C179.476 16.0579 179.325 16.209 179.021 16.2285H173.611C173.308 16.209 173.156 16.0579 173.156 15.7753V11.6672C173.156 11.4284 173.308 11.3017 173.611 11.2822H178.121L178.434 11.5941L178.596 10.9264H179.951L179.476 12.9098V12.9147ZM178.121 13.0853L177.671 12.6321H174.511V14.8835H178.121V13.0853ZM175.568 11.1165L174.712 10.2637H175.822L176.678 11.1165H175.568Z" fill="#A71C20"/>
<path d="M188.995 12.6262V16.2227H187.64V13.0746L187.19 12.6214H184.03V16.2178H182.68V11.6565C182.68 11.4177 182.831 11.291 183.135 11.2715H187.645L189 12.6165L188.995 12.6262Z" fill="#A71C20"/>
<path d="M198.359 11.2822V12.6272H193.394V14.8786H197.004V14.4254H193.663V13.0804H197.904C198.208 13.0999 198.359 13.251 198.359 13.5288V15.7704C198.359 16.0531 198.208 16.2042 197.904 16.2236H192.494C192.191 16.2042 192.039 16.0531 192.039 15.7704V11.6623C192.039 11.4235 192.191 11.2968 192.494 11.2773H198.359V11.2822Z" fill="#A71C20"/>
<path d="M213.513 13.9771L214.859 16.209L213.332 16.2285L212.173 14.4255H209.923L208.768 16.2139L207.242 16.2042L208.587 13.9625V13.519L207.242 11.2871L208.768 11.3066L209.928 13.0951H212.173L213.332 11.3212L214.859 11.3115L213.513 13.5434V13.9917V13.9771Z" fill="#A71C20"/>
<path d="M224.28 12.6272V16.2236H222.925V14.4254H219.315V16.2236H217.965V11.6623C217.965 11.4235 218.116 11.2968 218.42 11.2773H222.93L224.285 12.6223L224.28 12.6272ZM222.925 13.0804L222.475 12.6272H219.315V13.0804H222.925Z" fill="#A71C20"/>
<defs>
<linearGradient id="paint0_linear_2496_6493" x1="211.101" y1="22.0992" x2="211.101" y2="46.6943" gradientUnits="userSpaceOnUse">
<stop/>
<stop offset="0.49" stop-color="#58595B"/>
<stop offset="1" stop-color="#101010"/>
</linearGradient>
<linearGradient id="paint1_linear_2496_6493" x1="72.091" y1="22.0993" x2="72.091" y2="46.6943" gradientUnits="userSpaceOnUse">
<stop/>
<stop offset="0.49" stop-color="#58595B"/>
<stop offset="1" stop-color="#231F20"/>
</linearGradient>
<linearGradient id="paint2_linear_2496_6493" x1="104.717" y1="19.9102" x2="104.717" y2="46.7615" gradientUnits="userSpaceOnUse">
<stop/>
<stop offset="0.529167" stop-color="#58595B"/>
<stop offset="1"/>
</linearGradient>
<linearGradient id="paint3_linear_2496_6493" x1="132.078" y1="21.4404" x2="131.108" y2="46.7814" gradientUnits="userSpaceOnUse">
<stop stop-color="#17161A"/>
<stop offset="0.503125" stop-color="#58595B"/>
<stop offset="1" stop-color="#17161A"/>
</linearGradient>
<linearGradient id="paint4_linear_2496_6493" x1="156.782" y1="19.9102" x2="156.782" y2="46.7566" gradientUnits="userSpaceOnUse">
<stop stop-color="#17161A"/>
<stop offset="0.539583" stop-color="#58595B"/>
<stop offset="1"/>
</linearGradient>
<linearGradient id="paint5_linear_2496_6493" x1="184.854" y1="19.9062" x2="184.854" y2="46.7576" gradientUnits="userSpaceOnUse">
<stop stop-color="#17161A"/>
<stop offset="0.544792" stop-color="#58595B"/>
<stop offset="1"/>
</linearGradient>
<linearGradient id="paint6_linear_2496_6493" x1="17.093" y1="22.0995" x2="17.093" y2="46.6945" gradientUnits="userSpaceOnUse">
<stop/>
<stop offset="0.49" stop-color="#58595B"/>
<stop offset="1" stop-color="#231F20"/>
</linearGradient>
<linearGradient id="paint7_linear_2496_6493" x1="40.2653" y1="22.0998" x2="40.2653" y2="46.6948" gradientUnits="userSpaceOnUse">
<stop/>
<stop offset="0.49" stop-color="#58595B"/>
<stop offset="1" stop-color="#231F20"/>
</linearGradient>
<linearGradient id="paint8_linear_2496_6493" x1="5.59706" y1="20.8761" x2="19.8028" y2="20.8761" gradientUnits="userSpaceOnUse">
<stop stop-color="#F89521" stop-opacity="0"/>
<stop offset="0.03" stop-color="#F59121" stop-opacity="0.04"/>
<stop offset="0.28" stop-color="#DC6F22" stop-opacity="0.38"/>
<stop offset="0.51" stop-color="#C85522" stop-opacity="0.65"/>
<stop offset="0.72" stop-color="#BA4123" stop-opacity="0.84"/>
<stop offset="0.89" stop-color="#B23623" stop-opacity="0.96"/>
<stop offset="1" stop-color="#AF3224"/>
</linearGradient>
<linearGradient id="paint9_linear_2496_6493" x1="13.5172" y1="17.2073" x2="32.5952" y2="17.2073" gradientUnits="userSpaceOnUse">
<stop stop-color="#F89521" stop-opacity="0"/>
<stop offset="0.03" stop-color="#F59121" stop-opacity="0.04"/>
<stop offset="0.28" stop-color="#DC6F22" stop-opacity="0.38"/>
<stop offset="0.51" stop-color="#C85522" stop-opacity="0.65"/>
<stop offset="0.72" stop-color="#BA4123" stop-opacity="0.84"/>
<stop offset="0.89" stop-color="#B23623" stop-opacity="0.96"/>
<stop offset="1" stop-color="#AF3224"/>
</linearGradient>
<linearGradient id="paint10_linear_2496_6493" x1="0.000501442" y1="30.994" x2="39.4869" y2="30.994" gradientUnits="userSpaceOnUse">
<stop stop-color="#F89521" stop-opacity="0"/>
<stop offset="0.03" stop-color="#F59121" stop-opacity="0.04"/>
<stop offset="0.28" stop-color="#DC6F22" stop-opacity="0.38"/>
<stop offset="0.51" stop-color="#C85522" stop-opacity="0.65"/>
<stop offset="0.72" stop-color="#BA4123" stop-opacity="0.84"/>
<stop offset="0.89" stop-color="#B23623" stop-opacity="0.96"/>
<stop offset="1" stop-color="#AF3224"/>
</linearGradient>
<linearGradient id="paint11_linear_2496_6493" x1="0.000501442" y1="26.018" x2="39.7364" y2="26.018" gradientUnits="userSpaceOnUse">
<stop stop-color="#F89521" stop-opacity="0"/>
<stop offset="0.01" stop-color="#F69221" stop-opacity="0.02"/>
<stop offset="0.2" stop-color="#E07521" stop-opacity="0.32"/>
<stop offset="0.38" stop-color="#CE5D22" stop-opacity="0.56"/>
<stop offset="0.55" stop-color="#C14A23" stop-opacity="0.75"/>
<stop offset="0.72" stop-color="#B73C23" stop-opacity="0.89"/>
<stop offset="0.87" stop-color="#B13423" stop-opacity="0.97"/>
<stop offset="1" stop-color="#AF3224"/>
</linearGradient>
</defs>
</svg>
