<svg width="20" height="20" viewBox="0 0 20 20" fill="none" xmlns="http://www.w3.org/2000/svg">
<path d="M18.3334 5.83331H10.8334V1.66665C10.8334 1.44563 10.7456 1.23367 10.5893 1.07739C10.433 0.92111 10.2211 0.833313 10 0.833313H1.66671C1.44569 0.833313 1.23373 0.92111 1.07745 1.07739C0.921171 1.23367 0.833374 1.44563 0.833374 1.66665V18.3333C0.833374 18.5543 0.921171 18.7663 1.07745 18.9226C1.23373 19.0788 1.44569 19.1666 1.66671 19.1666H18.3334C18.5544 19.1666 18.7663 19.0788 18.9226 18.9226C19.0789 18.7663 19.1667 18.5543 19.1667 18.3333V6.66665C19.1667 6.44563 19.0789 6.23367 18.9226 6.07739C18.7663 5.92111 18.5544 5.83331 18.3334 5.83331ZM9.16671 10.8333H2.50004V9.16665H9.16671V10.8333ZM9.16671 6.66665V7.49998H2.50004V5.83331H9.16671V6.66665ZM2.50004 12.5H9.16671V14.1666H2.50004V12.5ZM9.16671 2.49998V4.16665H2.50004V2.49998H9.16671ZM2.50004 15.8333H9.16671V17.5H2.50004V15.8333ZM17.5 17.5H10.8334V7.49998H17.5V17.5ZM13.3334 13.3333H11.6667V11.6666H13.3334V13.3333ZM13.3334 16.6666H11.6667V15H13.3334V16.6666ZM16.6667 13.3333H15V11.6666H16.6667V13.3333ZM13.3334 9.99998H11.6667V8.33331H13.3334V9.99998ZM16.6667 9.99998H15V8.33331H16.6667V9.99998ZM16.6667 16.6666H15V15H16.6667V16.6666Z" fill="black"/>
</svg>
