<svg width="18" height="18" viewBox="0 0 18 18" fill="none" xmlns="http://www.w3.org/2000/svg">
<path d="M1.49999 17.3334H16.5C16.615 17.3337 16.7289 17.3102 16.8344 17.2644C16.94 17.2185 17.0349 17.1514 17.1131 17.067C17.1914 16.9827 17.2514 16.8831 17.2893 16.7745C17.3272 16.6659 17.3422 16.5506 17.3333 16.4359L16.5 5.60252C16.4838 5.39281 16.3889 5.19698 16.2343 5.05432C16.0798 4.91166 15.877 4.83273 15.6667 4.83335H13.1667C13.1667 3.72828 12.7277 2.66848 11.9463 1.88708C11.1649 1.10567 10.1051 0.666687 8.99999 0.666687C7.89492 0.666687 6.83512 1.10567 6.05371 1.88708C5.27231 2.66848 4.83333 3.72828 4.83333 4.83335H2.33333C2.12299 4.83273 1.9202 4.91166 1.76564 5.05432C1.61108 5.19698 1.51619 5.39281 1.49999 5.60252L0.666659 16.4359C0.6578 16.5506 0.672789 16.6659 0.710682 16.7745C0.748576 16.8831 0.808553 16.9827 0.886837 17.067C0.96512 17.1514 1.06001 17.2185 1.16554 17.2644C1.27107 17.3102 1.38494 17.3337 1.49999 17.3334ZM8.99999 2.33335C9.66303 2.33335 10.2989 2.59675 10.7678 3.06559C11.2366 3.53443 11.5 4.17031 11.5 4.83335H6.49999C6.49999 4.17031 6.76338 3.53443 7.23222 3.06559C7.70107 2.59675 8.33695 2.33335 8.99999 2.33335ZM3.10499 6.50002H4.83333V8.16669C4.83333 8.3877 4.92112 8.59966 5.0774 8.75594C5.23368 8.91222 5.44565 9.00002 5.66666 9.00002C5.88767 9.00002 6.09963 8.91222 6.25591 8.75594C6.41219 8.59966 6.49999 8.3877 6.49999 8.16669V6.50002H11.5V8.16669C11.5 8.3877 11.5878 8.59966 11.7441 8.75594C11.9004 8.91222 12.1123 9.00002 12.3333 9.00002C12.5543 9.00002 12.7663 8.91222 12.9226 8.75594C13.0789 8.59966 13.1667 8.3877 13.1667 8.16669V6.50002H14.895L15.6 15.6667H2.39999L3.10499 6.50002Z" fill="#17161A"/>
</svg>
