<svg width="65" height="62" viewBox="0 0 65 62" fill="none" xmlns="http://www.w3.org/2000/svg">
<ellipse cx="32.2747" cy="31" rx="32.2747" ry="31" fill="#ED1C24" fill-opacity="0.4"/>
<path d="M24.2929 37.2926L30.5859 30.9996L24.2929 24.7066C24.1108 24.518 24.01 24.2654 24.0122 24.0032C24.0145 23.741 24.1197 23.4902 24.3051 23.3048C24.4905 23.1194 24.7413 23.0142 25.0035 23.0119C25.2657 23.0096 25.5183 23.1104 25.7069 23.2926L31.9999 29.5856L38.2929 23.2926C38.3852 23.1971 38.4955 23.1209 38.6175 23.0685C38.7395 23.0161 38.8707 22.9885 39.0035 22.9873C39.1363 22.9862 39.268 23.0115 39.3909 23.0618C39.5138 23.1121 39.6254 23.1863 39.7193 23.2802C39.8132 23.3741 39.8875 23.4857 39.9377 23.6086C39.988 23.7315 40.0133 23.8632 40.0122 23.996C40.011 24.1288 39.9834 24.26 39.931 24.382C39.8786 24.504 39.8024 24.6143 39.7069 24.7066L33.4139 30.9996L39.7069 37.2926C39.8024 37.3848 39.8786 37.4952 39.931 37.6172C39.9834 37.7392 40.011 37.8704 40.0122 38.0032C40.0133 38.136 39.988 38.2676 39.9377 38.3905C39.8875 38.5134 39.8132 38.6251 39.7193 38.719C39.6254 38.8129 39.5138 38.8871 39.3909 38.9374C39.268 38.9877 39.1363 39.013 39.0035 39.0118C38.8707 39.0107 38.7395 38.9831 38.6175 38.9307C38.4955 38.8783 38.3852 38.8021 38.2929 38.7066L31.9999 32.4136L25.7069 38.7066C25.5183 38.8888 25.2657 38.9895 25.0035 38.9873C24.7413 38.985 24.4905 38.8798 24.3051 38.6944C24.1197 38.509 24.0145 38.2582 24.0122 37.996C24.01 37.7338 24.1108 37.4812 24.2929 37.2926Z" fill="black"/>
</svg>
