<svg width="129" height="31" viewBox="0 0 129 31" fill="none" xmlns="http://www.w3.org/2000/svg">
<g clip-path="url(#clip0_1739_88456)">
<path d="M22.6786 23.8191V29.8731C20.3331 28.147 18.7304 26.6978 15.8042 25.8026C11.8197 24.5857 7.02269 24.8766 3.34814 21.5251C0.190157 18.6464 -0.988155 14.5312 0.921715 10.5586C1.88211 8.64904 3.31436 7.01757 5.0821 5.8195C3.52405 7.74983 2.56912 9.80046 2.56912 12.6736C2.56912 15.4712 3.40678 17.2029 5.15749 18.7863C7.51412 20.9152 11.3003 21.6091 11.3003 21.6091C11.3003 21.6091 8.2708 20.3278 6.5536 19.0912C4.07412 17.284 3.37327 15.127 3.22808 13.594C2.93489 10.4915 4.46223 7.97084 5.83042 6.37342C7.50574 4.41511 9.0945 3.48072 11.0993 2.37568C8.80132 4.68368 6.71555 6.88258 6.8384 10.8719C7.00035 16.0419 12.0878 17.8183 14.288 19.7682C11.2166 17.0378 8.17308 14.8613 7.75704 11.2496C7.45827 8.66463 8.68126 6.45736 10.2505 4.70607C13.1237 1.49724 18.6048 0.0117188 18.6048 0.0117188C18.6048 0.0117188 14.1372 3.03031 13.3694 7.19871C12.7272 10.7013 14.207 12.7323 15.4942 13.843C19.73 17.4686 22.7596 17.3819 22.6786 23.8191Z" fill="white"/>
<path d="M109.775 29.8162H31.5762L31.9196 28.3223H110.115L109.775 29.8162Z" fill="white"/>
<path d="M123.667 24.0059H119.507L118.147 26.8455H112.004L112.727 23.7178L119.398 11.4336H128.014L129 23.7178L128.274 26.8455H123.67L123.667 24.0059ZM121.481 19.8879H123.656V15.8398L121.481 19.8879Z" fill="white"/>
<path d="M35.8776 11.4531H44.6452C46.2507 11.4531 47.4988 11.7609 48.409 12.3791C49.3193 12.9974 49.8694 13.7779 50.0313 14.6675L47.9511 23.6534C47.2576 24.6502 46.315 25.447 45.2176 25.9642C43.9091 26.5809 42.4748 26.8827 41.0292 26.8454H32.2617L35.8776 11.4531ZM40.6942 22.7274C41.2373 22.7703 41.7753 22.5963 42.1908 22.2434L43.7572 15.4453C43.7209 15.3138 43.5925 15.2019 43.3552 15.0928C43.0902 14.9817 42.8045 14.9292 42.5175 14.9389H41.1549L39.3567 22.7274H40.6942Z" fill="white"/>
<path d="M51.377 14.5585L52.1001 11.4336H58.0559L58.0001 20.3859H58.4831L62.8892 11.4336H68.1637L67.4433 14.5585L60.6834 26.8455H52.4408L51.377 14.5585Z" fill="white"/>
<path d="M72.951 11.4336H81.8358L80.8725 15.5936H74.551L74.2299 16.9924H80.1633L79.1972 21.1524H73.2554L72.8924 22.7162H79.3312L78.3735 26.8567H65.8477L68.3606 15.9769C68.3606 15.9769 69.3519 11.4336 72.951 11.4336Z" fill="white"/>
<path d="M83.3525 11.4336H87.3956C91.4331 11.4336 91.7347 17.0483 91.7347 17.0483H92.2624L93.5636 11.4336H99.1899L95.6187 26.8455H89.406L87.2532 21.2503H86.6948L85.3992 26.8455H79.7812L83.3525 11.4336Z" fill="white"/>
<path d="M97.7917 23.3877C98.9533 18.601 105.233 16.0356 105.233 16.0356L105.333 15.5936H99.643L100.606 11.4336H114.034C114.034 11.4336 113.721 12.852 113.233 14.8886C112.339 18.6178 105.747 22.2434 105.747 22.2434L105.641 22.705H111.409L110.452 26.8455H96.9904C96.9904 26.8455 96.9597 26.8119 97.7917 23.3877Z" fill="white"/>
<path d="M6.14354 24.3086L5.05458 25.8501L4.81445 29.8198H12.4372L14.7184 26.2641C10.9517 26.0795 6.14354 24.3086 6.14354 24.3086Z" fill="white"/>
<path d="M29.5771 6.47656H18.6288L14.8789 11.778C16.9731 14.528 19.285 15.2498 20.8263 16.8136L23.5124 12.6005V29.8084H29.9903L31.0877 25.0721L29.5771 6.47656Z" fill="white"/>
<path d="M114.528 28.9372H113.319L112.571 30.999H111.945L112.693 28.9372H111.484L111.713 28.3105H114.76L114.528 28.9372Z" fill="white"/>
<path d="M117.871 29.142C117.787 29.374 117.639 29.577 117.443 29.7267C117.268 29.875 117.047 29.9589 116.818 29.9645H116.259L115.885 30.9996H115.257L115.634 29.9645H115.039C114.948 29.9724 114.857 29.9535 114.777 29.9103C114.697 29.8671 114.631 29.8013 114.587 29.7211C114.545 29.6303 114.523 29.5315 114.523 29.4316C114.523 29.3316 114.545 29.2328 114.587 29.142L114.888 28.3027H115.514L115.212 29.142C115.165 29.2735 115.184 29.3406 115.271 29.3406H117.041C117.128 29.3406 117.195 29.2735 117.242 29.142L117.544 28.3027H118.169L117.871 29.142Z" fill="white"/>
<path d="M120.534 30.9994H119.679L119.227 30.1181H118.333L118.012 30.9994H117.387L118.364 28.3109H120.964C121.057 28.3014 121.152 28.3216 121.233 28.3688C121.315 28.416 121.38 28.4877 121.419 28.5739C121.495 28.7823 121.486 29.0127 121.394 29.2145C121.307 29.4636 121.156 29.6848 120.955 29.8552C120.778 30.0176 120.548 30.1109 120.307 30.1181H120.064L120.534 30.9994ZM118.559 29.4887H120.497C120.612 29.4887 120.701 29.3992 120.776 29.2089C120.852 29.0187 120.821 28.9292 120.709 28.9292H118.769L118.559 29.4887Z" fill="white"/>
<path d="M124.491 28.9372H122.257L122.109 29.3401H124.198L123.972 29.9639H121.883L121.735 30.3724H123.969L123.743 30.999H120.881L121.858 28.3105H124.72L124.491 28.9372Z" fill="white"/>
<path d="M126.95 30.7556C126.774 30.9072 126.551 30.9931 126.319 30.999H124.004L124.233 30.3724H126.548C126.634 30.3724 126.701 30.3052 126.751 30.1681C126.802 30.0311 126.782 29.9639 126.696 29.9639H125.02C124.929 29.9719 124.838 29.9535 124.757 29.9108C124.677 29.8681 124.61 29.803 124.565 29.7233C124.522 29.6325 124.499 29.5331 124.499 29.4324C124.499 29.3317 124.522 29.2323 124.565 29.1414C124.649 28.9119 124.795 28.7104 124.987 28.5595C125.165 28.404 125.392 28.3159 125.629 28.3105H127.941L127.715 28.9372H125.4C125.313 28.9372 125.246 29.0044 125.196 29.1414C125.146 29.2785 125.168 29.3401 125.255 29.3401H126.93C127.021 29.3324 127.112 29.351 127.193 29.3937C127.273 29.4363 127.34 29.5012 127.385 29.5807C127.427 29.673 127.448 29.7731 127.448 29.8744C127.448 29.9757 127.427 30.0758 127.385 30.1681C127.298 30.4013 127.147 30.605 126.95 30.7556Z" fill="white"/>
</g>
<defs>
<clipPath id="clip0_1739_88456">
<rect width="129" height="31" fill="white"/>
</clipPath>
</defs>
</svg>
