<svg width="16" height="20" viewBox="0 0 16 20" fill="none" xmlns="http://www.w3.org/2000/svg">
<path d="M8 9.16665C8.82409 9.16665 9.62967 8.92228 10.3149 8.46444C11.0001 8.0066 11.5341 7.35585 11.8495 6.5945C12.1649 5.83314 12.2474 4.99536 12.0866 4.18711C11.9258 3.37885 11.529 2.63642 10.9463 2.0537C10.3636 1.47098 9.62113 1.07415 8.81288 0.913376C8.00462 0.752604 7.16684 0.835118 6.40549 1.15048C5.64413 1.46585 4.99338 1.9999 4.53554 2.68511C4.0777 3.37031 3.83333 4.17589 3.83333 4.99998C3.83466 6.10464 4.27407 7.16368 5.05518 7.9448C5.8363 8.72591 6.89534 9.16532 8 9.16665ZM8 2.49998C8.49445 2.49998 8.9778 2.6466 9.38893 2.92131C9.80005 3.19601 10.1205 3.58646 10.3097 4.04327C10.4989 4.50009 10.5484 5.00275 10.452 5.48771C10.3555 5.97266 10.1174 6.41812 9.76777 6.76775C9.41814 7.11738 8.97268 7.35548 8.48773 7.45194C8.00277 7.54841 7.50011 7.4989 7.04329 7.30968C6.58648 7.12046 6.19603 6.80003 5.92133 6.38891C5.64662 5.97778 5.5 5.49443 5.5 4.99998C5.5 4.33694 5.76339 3.70106 6.23223 3.23221C6.70107 2.76337 7.33696 2.49998 8 2.49998ZM1.33333 19.1666H14.6667C14.8877 19.1666 15.0996 19.0788 15.2559 18.9226C15.4122 18.7663 15.5 18.5543 15.5 18.3333V15C15.4987 13.8953 15.0593 12.8363 14.2782 12.0552C13.497 11.274 12.438 10.8346 11.3333 10.8333H4.66667C3.562 10.8346 2.50296 11.274 1.72185 12.0552C0.940735 12.8363 0.501323 13.8953 0.5 15V18.3333C0.5 18.5543 0.587797 18.7663 0.744078 18.9226C0.900358 19.0788 1.11232 19.1666 1.33333 19.1666ZM2.16667 15C2.16667 14.3369 2.43006 13.7011 2.8989 13.2322C3.36774 12.7634 4.00363 12.5 4.66667 12.5H11.3333C11.9964 12.5 12.6323 12.7634 13.1011 13.2322C13.5699 13.7011 13.8333 14.3369 13.8333 15V17.5H2.16667V15Z" fill="black"/>
</svg>
