<svg width="18" height="15" viewBox="0 0 18 15" fill="none" xmlns="http://www.w3.org/2000/svg">
<path fill-rule="evenodd" clip-rule="evenodd" d="M13.5346 2.697C13.568 2.75527 13.6263 2.79689 13.7013 2.79689C15.7013 2.79689 17.3346 4.42841 17.3346 6.42619V11.3707C17.3346 13.3685 15.7013 15 13.7013 15H4.3013C2.29297 15 0.667969 13.3685 0.667969 11.3707V6.42619C0.667969 4.42841 2.29297 2.79689 4.3013 2.79689C4.36797 2.79689 4.43464 2.7636 4.45964 2.697L4.50964 2.59711C4.53836 2.53665 4.56785 2.47455 4.59778 2.4115C4.81097 1.96246 5.04682 1.46567 5.19297 1.1737C5.5763 0.424528 6.2263 0.00832408 7.03464 0H10.9596C11.768 0.00832408 12.4263 0.424528 12.8096 1.1737C12.9409 1.43592 13.1409 1.85833 13.3336 2.26545C13.3734 2.34942 13.4128 2.43274 13.4513 2.51387L13.5346 2.697ZM12.9263 5.89345C12.9263 6.30966 13.2596 6.64262 13.6763 6.64262C14.093 6.64262 14.4346 6.30966 14.4346 5.89345C14.4346 5.47725 14.093 5.13596 13.6763 5.13596C13.2596 5.13596 12.9263 5.47725 12.9263 5.89345ZM7.55964 7.18368C7.9513 6.79245 8.45964 6.58435 9.0013 6.58435C9.54297 6.58435 10.0513 6.79245 10.4346 7.17536C10.818 7.55827 11.0263 8.06604 11.0263 8.6071C11.018 9.72253 10.118 10.6299 9.0013 10.6299C8.45964 10.6299 7.9513 10.4218 7.56797 10.0388C7.18464 9.65594 6.9763 9.14817 6.9763 8.6071V8.59878C6.96797 8.07436 7.1763 7.56659 7.55964 7.18368ZM11.3096 10.9212C10.718 11.5122 9.9013 11.8785 9.0013 11.8785C8.1263 11.8785 7.30964 11.5372 6.68464 10.9212C6.06797 10.2969 5.7263 9.48113 5.7263 8.6071C5.71797 7.7414 6.05964 6.92564 6.6763 6.30133C7.3013 5.67703 8.1263 5.33574 9.0013 5.33574C9.8763 5.33574 10.7013 5.67703 11.318 6.29301C11.9346 6.91731 12.2763 7.7414 12.2763 8.6071C12.268 9.51443 11.9013 10.3302 11.3096 10.9212Z" fill="#DA251C"/>
</svg>
