<svg width="24" height="24" viewBox="0 0 24 24" fill="none" xmlns="http://www.w3.org/2000/svg">
<path d="M4.00001 11.9998C4.00001 12.265 3.89466 12.5194 3.70712 12.7069C3.51958 12.8945 3.26523 12.9998 3.00001 12.9998C2.7348 12.9998 2.48044 12.8945 2.29291 12.7069C2.10537 12.5194 2.00001 12.265 2.00001 11.9998C1.99685 10.1155 2.52706 8.26868 3.52937 6.67299C4.53168 5.07731 5.96514 3.79789 7.66402 2.98265C9.3629 2.16742 11.2578 1.84965 13.1297 2.0661C15.0016 2.28255 16.774 3.02438 18.242 4.20581V2.75781C18.242 2.4926 18.3474 2.23824 18.5349 2.05071C18.7224 1.86317 18.9768 1.75781 19.242 1.75781C19.5072 1.75781 19.7616 1.86317 19.9491 2.05071C20.1367 2.23824 20.242 2.4926 20.242 2.75781V6.75781C20.242 7.02303 20.1367 7.27738 19.9491 7.46492C19.7616 7.65246 19.5072 7.75781 19.242 7.75781H15.242C14.9768 7.75781 14.7224 7.65246 14.5349 7.46492C14.3474 7.27738 14.242 7.02303 14.242 6.75781C14.242 6.4926 14.3474 6.23824 14.5349 6.05071C14.7224 5.86317 14.9768 5.75781 15.242 5.75781H16.985C15.8101 4.81472 14.3924 4.22322 12.8956 4.05162C11.3987 3.88003 9.88393 4.13535 8.52607 4.78809C7.1682 5.44082 6.02267 6.46436 5.22179 7.74047C4.42091 9.01658 3.99734 10.4932 4.00001 11.9998ZM21 10.9998C20.7348 10.9998 20.4804 11.1052 20.2929 11.2927C20.1054 11.4802 20 11.7346 20 11.9998C20.0027 13.5064 19.5791 14.983 18.7782 16.2592C17.9774 17.5353 16.8318 18.5588 15.474 19.2115C14.1161 19.8643 12.6013 20.1196 11.1045 19.948C9.60767 19.7764 8.18994 19.1849 7.01501 18.2418H8.75701C9.02223 18.2418 9.27658 18.1365 9.46412 17.9489C9.65166 17.7614 9.75701 17.507 9.75701 17.2418C9.75701 16.9766 9.65166 16.7222 9.46412 16.5347C9.27658 16.3472 9.02223 16.2418 8.75701 16.2418H4.75701C4.4918 16.2418 4.23744 16.3472 4.04991 16.5347C3.86237 16.7222 3.75701 16.9766 3.75701 17.2418V21.2418C3.75701 21.507 3.86237 21.7614 4.04991 21.9489C4.23744 22.1365 4.4918 22.2418 4.75701 22.2418C5.02223 22.2418 5.27658 22.1365 5.46412 21.9489C5.65166 21.7614 5.75701 21.507 5.75701 21.2418V19.7938C7.22512 20.9751 8.99757 21.7169 10.8695 21.9333C12.7414 22.1497 14.6363 21.8319 16.3352 21.0167C18.0341 20.2015 19.4677 18.9221 20.4701 17.3265C21.4725 15.7309 22.0029 13.8842 22 11.9998C22 11.7346 21.8947 11.4802 21.7071 11.2927C21.5196 11.1052 21.2652 10.9998 21 10.9998Z" fill="black"/>
</svg>
