<svg width="16" height="19" viewBox="0 0 16 19" fill="none" xmlns="http://www.w3.org/2000/svg">
<path d="M13 0.333496H3C2.33696 0.333496 1.70107 0.596888 1.23223 1.06573C0.763392 1.53457 0.5 2.17045 0.5 2.8335V17.8335C0.5 18.0084 0.555031 18.1789 0.657298 18.3208C0.759565 18.4626 0.903884 18.5688 1.06981 18.6241C1.23574 18.6794 1.41486 18.6811 1.58181 18.6289C1.74875 18.5768 1.89506 18.4734 2 18.3335L3.69083 16.0835L4.75417 18.2102C4.81733 18.3367 4.91166 18.4451 5.0283 18.5252C5.14493 18.6052 5.28002 18.6543 5.42083 18.6677C5.56279 18.6816 5.70594 18.6582 5.83605 18.5997C5.96616 18.5413 6.0787 18.4498 6.1625 18.3343L8 15.8893L9.83333 18.3335C9.91724 18.4488 10.0298 18.5402 10.1599 18.5987C10.29 18.6571 10.4331 18.6806 10.575 18.6668C10.7158 18.6534 10.8509 18.6044 10.9675 18.5243C11.0842 18.4443 11.1785 18.3359 11.2417 18.2093L12.3092 16.0835L14 18.3335C14.0776 18.437 14.1783 18.521 14.294 18.5788C14.4097 18.6367 14.5373 18.6668 14.6667 18.6668C14.8877 18.6668 15.0996 18.579 15.2559 18.4228C15.4122 18.2665 15.5 18.0545 15.5 17.8335V2.8335C15.5 2.17045 15.2366 1.53457 14.7678 1.06573C14.2989 0.596888 13.663 0.333496 13 0.333496ZM13.8333 15.3335L12.8333 14.0002C12.7494 13.8848 12.6369 13.7934 12.5068 13.735C12.3767 13.6765 12.2336 13.653 12.0917 13.6668C11.9508 13.6802 11.8158 13.7293 11.6991 13.8093C11.5825 13.8893 11.4882 13.9978 11.425 14.1243L10.3617 16.251L8.66667 14.0002C8.58904 13.8967 8.48839 13.8127 8.37268 13.7548C8.25696 13.6969 8.12937 13.6668 8 13.6668C7.87063 13.6668 7.74303 13.6969 7.62732 13.7548C7.51161 13.8127 7.41096 13.8967 7.33333 14.0002L5.6425 16.2543L4.58333 14.1277C4.51988 13.9993 4.42444 13.8895 4.30621 13.8088C4.18798 13.7281 4.05095 13.6792 3.90833 13.6668C3.76642 13.6534 3.62345 13.677 3.49343 13.7354C3.36341 13.7939 3.25081 13.8851 3.16667 14.0002L2.16667 15.3335V2.8335C2.16667 2.61248 2.25446 2.40052 2.41074 2.24424C2.56702 2.08796 2.77899 2.00016 3 2.00016H13C13.221 2.00016 13.433 2.08796 13.5893 2.24424C13.7455 2.40052 13.8333 2.61248 13.8333 2.8335V15.3335ZM12.1667 7.00016C12.1667 7.22118 12.0789 7.43314 11.9226 7.58942C11.7663 7.7457 11.5543 7.8335 11.3333 7.8335H4.66667C4.44565 7.8335 4.23369 7.7457 4.07741 7.58942C3.92113 7.43314 3.83333 7.22118 3.83333 7.00016C3.83333 6.77915 3.92113 6.56719 4.07741 6.41091C4.23369 6.25463 4.44565 6.16683 4.66667 6.16683H11.3333C11.5543 6.16683 11.7663 6.25463 11.9226 6.41091C12.0789 6.56719 12.1667 6.77915 12.1667 7.00016ZM8.83333 10.3335C8.83333 10.5545 8.74554 10.7665 8.58926 10.9228C8.43297 11.079 8.22101 11.1668 8 11.1668H4.66667C4.44565 11.1668 4.23369 11.079 4.07741 10.9228C3.92113 10.7665 3.83333 10.5545 3.83333 10.3335C3.83333 10.1125 3.92113 9.90052 4.07741 9.74424C4.23369 9.58796 4.44565 9.50016 4.66667 9.50016H8C8.22101 9.50016 8.43297 9.58796 8.58926 9.74424C8.74554 9.90052 8.83333 10.1125 8.83333 10.3335Z" fill="#828084"/>
</svg>
