<svg width="30" height="30" viewBox="0 0 30 30" fill="none" xmlns="http://www.w3.org/2000/svg">
<circle cx="15" cy="15" r="15" fill="#2E2E2E"/>
<path d="M10.1833 18.9331L14.1164 15L10.1833 11.0669C10.0694 10.949 10.0064 10.7911 10.0078 10.6272C10.0093 10.4634 10.075 10.3066 10.1909 10.1907C10.3068 10.0748 10.4635 10.0091 10.6274 10.0077C10.7913 10.0063 10.9491 10.0693 11.067 10.1831L15.0001 14.1162L18.9333 10.1831C18.9909 10.1234 19.0599 10.0758 19.1361 10.0431C19.2124 10.0103 19.2944 9.99305 19.3774 9.99233C19.4604 9.99161 19.5427 10.0074 19.6195 10.0389C19.6963 10.0703 19.7661 10.1167 19.8248 10.1754C19.8834 10.2341 19.9298 10.3038 19.9613 10.3806C19.9927 10.4575 20.0085 10.5398 20.0078 10.6227C20.0071 10.7057 19.9898 10.7877 19.9571 10.864C19.9243 10.9402 19.8767 11.0092 19.817 11.0669L15.8839 15L19.817 18.9331C19.8767 18.9908 19.9243 19.0597 19.9571 19.136C19.9898 19.2122 20.0071 19.2943 20.0078 19.3772C20.0085 19.4602 19.9927 19.5425 19.9613 19.6193C19.9298 19.6961 19.8834 19.7659 19.8248 19.8246C19.7661 19.8833 19.6963 19.9297 19.6195 19.9611C19.5427 19.9926 19.4604 20.0084 19.3774 20.0076C19.2944 20.0069 19.2124 19.9897 19.1361 19.9569C19.0599 19.9242 18.9909 19.8766 18.9333 19.8169L15.0001 15.8837L11.067 19.8169C10.9491 19.9307 10.7913 19.9937 10.6274 19.9923C10.4635 19.9909 10.3068 19.9251 10.1909 19.8093C10.075 19.6934 10.0093 19.5366 10.0078 19.3727C10.0064 19.2089 10.0694 19.051 10.1833 18.9331Z" fill="white"/>
</svg>
