<svg width="20" height="20" viewBox="0 0 20 20" fill="none" xmlns="http://www.w3.org/2000/svg">
<path d="M0.832031 18.3338V3.33381C0.832031 3.11279 0.919829 2.90083 1.07611 2.74455C1.23239 2.58827 1.44435 2.50047 1.66536 2.50047H9.9987C10.2197 2.50047 10.4317 2.58827 10.588 2.74455C10.7442 2.90083 10.832 3.11279 10.832 3.33381C10.832 3.55482 10.7442 3.76678 10.588 3.92306C10.4317 4.07934 10.2197 4.16714 9.9987 4.16714H2.4987V17.5005H15.832V10.0005C15.832 9.77946 15.9198 9.5675 16.0761 9.41122C16.2324 9.25494 16.4443 9.16714 16.6654 9.16714C16.8864 9.16714 17.0983 9.25494 17.2546 9.41122C17.4109 9.5675 17.4987 9.77946 17.4987 10.0005V18.3338C17.4987 18.5548 17.4109 18.7668 17.2546 18.9231C17.0983 19.0793 16.8864 19.1671 16.6654 19.1671H1.66536C1.44435 19.1671 1.23239 19.0793 1.07611 18.9231C0.919829 18.7668 0.832031 18.5548 0.832031 18.3338ZM9.40953 7.18881L15.5204 1.07797C15.6766 0.921747 15.8886 0.833984 16.1095 0.833984C16.3305 0.833984 16.5424 0.921747 16.6987 1.07797L18.9212 3.29964C18.9987 3.37703 19.0601 3.46894 19.1021 3.57011C19.144 3.67127 19.1656 3.77971 19.1656 3.88922C19.1656 3.99874 19.144 4.10717 19.1021 4.20834C19.0601 4.3095 18.9987 4.40141 18.9212 4.47881L12.8095 10.5896C12.6533 10.7459 12.4414 10.8338 12.2204 10.8338H9.9987C9.77768 10.8338 9.56572 10.746 9.40944 10.5897C9.25316 10.4334 9.16536 10.2215 9.16536 10.0005V7.77797C9.16541 7.55698 9.25324 7.34505 9.40953 7.18881ZM10.832 9.16714H11.8754L17.1537 3.88964L16.1095 2.84547L10.832 8.12381V9.16714Z" fill="#828084"/>
</svg>
