<svg width="20" height="21" viewBox="0 0 20 21" fill="none" xmlns="http://www.w3.org/2000/svg">
<path d="M17 13C17.21 13.0001 17.4146 12.934 17.585 12.8112C17.7553 12.6885 17.8827 12.5152 17.949 12.316L19.949 6.316C19.9991 6.16567 20.0127 6.00559 19.9888 5.84895C19.9648 5.69232 19.904 5.54362 19.8113 5.41509C19.7187 5.28657 19.5968 5.18192 19.4557 5.10975C19.3146 5.03758 19.1585 4.99996 19 5H5V1C5 0.734784 4.89464 0.48043 4.70711 0.292893C4.51957 0.105357 4.26522 0 4 0H1C0.734784 0 0.48043 0.105357 0.292893 0.292893C0.105357 0.48043 0 0.734784 0 1C0 1.26522 0.105357 1.51957 0.292893 1.70711C0.48043 1.89464 0.734784 2 1 2H3V16C3 16.2652 3.10536 16.5196 3.29289 16.7071C3.48043 16.8946 3.73478 17 4 17H16C16.2652 17 16.5196 16.8946 16.7071 16.7071C16.8946 16.5196 17 16.2652 17 16C17 15.7348 16.8946 15.4804 16.7071 15.2929C16.5196 15.1054 16.2652 15 16 15H5V13H17ZM5 7H17.613L16.279 11H5V7ZM4.5 18C4.79667 18 5.08668 18.088 5.33336 18.2528C5.58003 18.4176 5.77229 18.6519 5.88582 18.926C5.99935 19.2001 6.02906 19.5017 5.97118 19.7926C5.9133 20.0836 5.77044 20.3509 5.56066 20.5607C5.35088 20.7704 5.08361 20.9133 4.79264 20.9712C4.50166 21.0291 4.20006 20.9993 3.92597 20.8858C3.65189 20.7723 3.41762 20.58 3.2528 20.3334C3.08797 20.0867 3 19.7967 3 19.5C3 19.1022 3.15804 18.7206 3.43934 18.4393C3.72064 18.158 4.10218 18 4.5 18ZM14.5 18C14.7967 18 15.0867 18.088 15.3334 18.2528C15.58 18.4176 15.7723 18.6519 15.8858 18.926C15.9993 19.2001 16.0291 19.5017 15.9712 19.7926C15.9133 20.0836 15.7704 20.3509 15.5607 20.5607C15.3509 20.7704 15.0836 20.9133 14.7926 20.9712C14.5017 21.0291 14.2001 20.9993 13.926 20.8858C13.6519 20.7723 13.4176 20.58 13.2528 20.3334C13.088 20.0867 13 19.7967 13 19.5C13 19.1022 13.158 18.7206 13.4393 18.4393C13.7206 18.158 14.1022 18 14.5 18Z" fill="black"/>
</svg>
