<svg width="45" height="45" viewBox="0 0 45 45" fill="none" xmlns="http://www.w3.org/2000/svg">
<circle cx="22.5" cy="22.5" r="22.5" fill="white"/>
<path d="M15.2749 28.3995L21.1746 22.4998L15.2749 16.6001C15.1041 16.4233 15.0096 16.1865 15.0118 15.9407C15.0139 15.6949 15.1125 15.4597 15.2863 15.2859C15.4601 15.1121 15.6953 15.0135 15.9411 15.0114C16.1869 15.0092 16.4237 15.1037 16.6005 15.2745L22.5002 21.1742L28.3999 15.2745C28.4864 15.1849 28.5898 15.1135 28.7042 15.0644C28.8186 15.0153 28.9416 14.9894 29.0661 14.9883C29.1906 14.9872 29.314 15.011 29.4292 15.0581C29.5444 15.1052 29.6491 15.1748 29.7371 15.2629C29.8252 15.3509 29.8948 15.4556 29.9419 15.5708C29.989 15.686 30.0128 15.8094 30.0117 15.9339C30.0106 16.0584 29.9847 16.1814 29.9356 16.2958C29.8865 16.4102 29.8151 16.5136 29.7255 16.6001L23.8258 22.4998L29.7255 28.3995C29.8151 28.486 29.8865 28.5894 29.9356 28.7038C29.9847 28.8182 30.0106 28.9412 30.0117 29.0657C30.0128 29.1902 29.989 29.3136 29.9419 29.4288C29.8948 29.544 29.8252 29.6487 29.7371 29.7367C29.6491 29.8248 29.5444 29.8944 29.4292 29.9415C29.314 29.9886 29.1906 30.0124 29.0661 30.0113C28.9416 30.0102 28.8186 29.9843 28.7042 29.9352C28.5898 29.8861 28.4864 29.8147 28.3999 29.7251L22.5002 23.8254L16.6005 29.7251C16.4237 29.8959 16.1869 29.9904 15.9411 29.9882C15.6953 29.9861 15.4601 29.8875 15.2863 29.7137C15.1125 29.5399 15.0139 29.3047 15.0118 29.0589C15.0096 28.8131 15.1041 28.5763 15.2749 28.3995Z" fill="#17161A"/>
</svg>
