<svg width="22" height="13" viewBox="0 0 22 13" fill="none" xmlns="http://www.w3.org/2000/svg">
<path d="M0.292786 7.20692C0.105315 7.01939 0 6.76508 0 6.49992C0 6.23475 0.105315 5.98045 0.292786 5.79292L5.29279 0.792919C5.48139 0.610761 5.73399 0.509966 5.99619 0.512245C6.25838 0.514523 6.5092 0.619692 6.6946 0.805101C6.88001 0.990509 6.98518 1.24132 6.98746 1.50352C6.98974 1.76571 6.88894 2.01832 6.70679 2.20692L3.41379 5.49992H20.9998C21.265 5.49992 21.5194 5.60528 21.7069 5.79281C21.8944 5.98035 21.9998 6.2347 21.9998 6.49992C21.9998 6.76514 21.8944 7.01949 21.7069 7.20703C21.5194 7.39456 21.265 7.49992 20.9998 7.49992H3.41379L6.70679 10.7929C6.8023 10.8852 6.87848 10.9955 6.93089 11.1175C6.9833 11.2395 7.01088 11.3707 7.01204 11.5035C7.01319 11.6363 6.98789 11.768 6.93761 11.8909C6.88733 12.0138 6.81307 12.1254 6.71918 12.2193C6.62529 12.3132 6.51364 12.3875 6.39074 12.4377C6.26784 12.488 6.13616 12.5133 6.00339 12.5122C5.87061 12.511 5.73939 12.4834 5.61738 12.431C5.49538 12.3786 5.38503 12.3024 5.29279 12.2069L0.292786 7.20692Z" fill="black"/>
</svg>
