<svg width="22" height="22" viewBox="0 0 22 22" fill="none" xmlns="http://www.w3.org/2000/svg">
<path d="M19.929 0.628C19.8546 0.442467 19.7264 0.283473 19.5608 0.171534C19.3952 0.0595947 19.1999 -0.000153042 19 2.94403e-07H3C2.80012 -0.000153042 2.60479 0.0595947 2.43919 0.171534C2.2736 0.283473 2.14535 0.442467 2.071 0.628L0.071 5.628C0.0241356 5.74643 4.71931e-05 5.87264 0 6V21C0 21.2652 0.105357 21.5196 0.292893 21.7071C0.48043 21.8946 0.734784 22 1 22H21C21.2652 22 21.5196 21.8946 21.7071 21.7071C21.8946 21.5196 22 21.2652 22 21V6C22 5.87264 21.9759 5.74643 21.929 5.628L19.929 0.628ZM3.677 2H18.323L19.523 5H2.477L3.677 2ZM2 20V7H20V20H2ZM10 17C10 17.2652 9.89464 17.5196 9.70711 17.7071C9.51957 17.8946 9.26522 18 9 18H5C4.73478 18 4.48043 17.8946 4.29289 17.7071C4.10536 17.5196 4 17.2652 4 17C4 16.7348 4.10536 16.4804 4.29289 16.2929C4.48043 16.1054 4.73478 16 5 16H9C9.26522 16 9.51957 16.1054 9.70711 16.2929C9.89464 16.4804 10 16.7348 10 17Z" fill="black"/>
</svg>
