<svg width="18" height="18" viewBox="0 0 18 18" fill="none" xmlns="http://www.w3.org/2000/svg">
<path d="M16.5013 0.666016H11.5013C11.2803 0.666016 11.0683 0.753813 10.912 0.910093C10.7558 1.06637 10.668 1.27834 10.668 1.49935V6.49935C10.668 6.72036 10.7558 6.93232 10.912 7.0886C11.0683 7.24488 11.2803 7.33268 11.5013 7.33268H12.3346V8.99935H14.0013V7.33268H15.668V8.99935H17.3346V1.49935C17.3346 1.27834 17.2468 1.06637 17.0906 0.910093C16.9343 0.753813 16.7223 0.666016 16.5013 0.666016ZM14.0013 5.66602H12.3346V2.33268H15.668V5.66602H14.0013ZM1.5013 7.33268H6.5013C6.72232 7.33268 6.93428 7.24488 7.09056 7.0886C7.24684 6.93232 7.33464 6.72036 7.33464 6.49935V1.49935C7.33464 1.27834 7.24684 1.06637 7.09056 0.910093C6.93428 0.753813 6.72232 0.666016 6.5013 0.666016H1.5013C1.28029 0.666016 1.06833 0.753813 0.912046 0.910093C0.755766 1.06637 0.667969 1.27834 0.667969 1.49935V6.49935C0.667969 6.72036 0.755766 6.93232 0.912046 7.0886C1.06833 7.24488 1.28029 7.33268 1.5013 7.33268ZM2.33464 2.33268H5.66797V5.66602H2.33464V2.33268ZM3.16797 12.3327V13.9993H1.5013V12.3327H3.16797ZM1.5013 15.666H3.16797V17.3327H1.5013V15.666ZM4.83464 13.9993V15.666H3.16797V13.9993H4.83464ZM4.83464 12.3327H3.16797V10.666H4.83464V8.99935H6.5013V12.3327H4.83464ZM3.16797 8.99935V10.666H1.5013V8.99935H3.16797ZM10.668 11.4993V12.3327H9.83464V10.666H8.16797V13.9993H10.668V16.4993C10.668 16.7204 10.7558 16.9323 10.912 17.0886C11.0683 17.2449 11.2803 17.3327 11.5013 17.3327H16.5013C16.7223 17.3327 16.9343 17.2449 17.0906 17.0886C17.2468 16.9323 17.3346 16.7204 17.3346 16.4993V11.4993C17.3346 11.2783 17.2468 11.0664 17.0906 10.9101C16.9343 10.7538 16.7223 10.666 16.5013 10.666H12.3346V8.99935H10.668V11.4993ZM15.668 12.3327V15.666H12.3346V12.3327H15.668ZM6.5013 13.9993H8.16797V15.666H9.0013V17.3327H4.83464V15.666H6.5013V13.9993ZM9.83464 3.99935H8.16797V2.33268H9.83464V3.99935ZM8.16797 5.66602H9.83464V8.99935H8.16797V5.66602ZM3.16797 3.16602H4.83464V4.83268H3.16797V3.16602ZM13.168 3.16602H14.8346V4.83268H13.168V3.16602ZM14.8346 14.8327H13.168V13.166H14.8346V14.8327Z" fill="#C9161D"/>
</svg>
