<svg width="24" height="24" viewBox="0 0 24 24" fill="none" xmlns="http://www.w3.org/2000/svg">
<path d="M22.929 6.628L20.929 1.628C20.8546 1.44247 20.7264 1.28347 20.5608 1.17153C20.3952 1.05959 20.1999 0.999847 20 1H4C3.80012 0.999847 3.60479 1.05959 3.43919 1.17153C3.2736 1.28347 3.14535 1.44247 3.071 1.628L1.071 6.628C1.02414 6.74643 1.00005 6.87264 1 7V22C1 22.2652 1.10536 22.5196 1.29289 22.7071C1.48043 22.8946 1.73478 23 2 23H22C22.2652 23 22.5196 22.8946 22.7071 22.7071C22.8946 22.5196 23 22.2652 23 22V7C23 6.87264 22.9759 6.74643 22.929 6.628ZM4.677 3H19.323L20.523 6H3.477L4.677 3ZM3 21V8H21V21H3ZM15.707 13.293C15.8025 13.3852 15.8787 13.4956 15.9311 13.6176C15.9835 13.7396 16.0111 13.8708 16.0123 14.0036C16.0134 14.1364 15.9881 14.2681 15.9378 14.391C15.8875 14.5139 15.8133 14.6255 15.7194 14.7194C15.6255 14.8133 15.5139 14.8875 15.391 14.9378C15.2681 14.9881 15.1364 15.0134 15.0036 15.0123C14.8708 15.0111 14.7396 14.9835 14.6176 14.9311C14.4956 14.8787 14.3852 14.8025 14.293 14.707L13 13.414V18C13 18.2652 12.8946 18.5196 12.7071 18.7071C12.5196 18.8946 12.2652 19 12 19C11.7348 19 11.4804 18.8946 11.2929 18.7071C11.1054 18.5196 11 18.2652 11 18V13.414L9.707 14.707C9.5184 14.8892 9.2658 14.99 9.0036 14.9877C8.7414 14.9854 8.49059 14.8802 8.30518 14.6948C8.11977 14.5094 8.0146 14.2586 8.01233 13.9964C8.01005 13.7342 8.11084 13.4816 8.293 13.293L11.293 10.293C11.4805 10.1055 11.7348 10.0002 12 10.0002C12.2652 10.0002 12.5195 10.1055 12.707 10.293L15.707 13.293Z" fill="black"/>
</svg>
