<svg width="24" height="25" viewBox="0 0 24 25" fill="none" xmlns="http://www.w3.org/2000/svg">
<mask id="mask0_3302_19537" style="mask-type:alpha" maskUnits="userSpaceOnUse" x="0" y="0" width="24" height="25">
<circle cx="12" cy="12.5" r="12" fill="#111013"/>
</mask>
<g mask="url(#mask0_3302_19537)">
<circle cx="31.5" cy="33" r="44.5" fill="#C9161D"/>
<path d="M13.5994 15.3385V17.7894C12.648 17.0906 11.9979 16.5039 10.8109 16.1415C9.19474 15.6488 7.24896 15.7666 5.75848 14.4098C4.47752 13.2444 3.99957 11.5783 4.77426 9.97004C5.16382 9.19697 5.74477 8.53647 6.46181 8.05144C5.82983 8.83293 5.44248 9.66311 5.44248 10.8263C5.44248 11.9589 5.78226 12.6599 6.49239 13.301C7.44829 14.1629 8.98408 14.4438 8.98408 14.4438C8.98408 14.4438 7.75522 13.925 7.05868 13.4244C6.05295 12.6928 5.76867 11.8196 5.70977 11.1989C5.59085 9.94286 6.21038 8.9224 6.76535 8.27569C7.4449 7.48288 8.08934 7.1046 8.90253 6.65723C7.97042 7.59161 7.12438 8.48183 7.17421 10.0969C7.2399 12.1899 9.30347 12.9091 10.1959 13.6985C8.9501 12.5931 7.71558 11.712 7.54683 10.2498C7.42564 9.20328 7.92172 8.30968 8.55823 7.60068C9.72366 6.3016 11.9469 5.7002 11.9469 5.7002C11.9469 5.7002 10.1348 6.92226 9.82333 8.60981C9.56283 10.0278 10.1631 10.8501 10.6852 11.2997C12.4034 12.7675 13.6322 12.7324 13.5994 15.3385Z" fill="white"/>
<path d="M6.89263 15.5371L6.45092 16.1612L6.35352 17.7683H9.44547L10.3708 16.3288C8.84294 16.254 6.89263 15.5371 6.89263 15.5371Z" fill="white"/>
<path d="M16.3975 8.31738H11.9566L10.4355 10.4636C11.285 11.577 12.2228 11.8692 12.848 12.5023L13.9375 10.7966V17.7631H16.5651L17.0102 15.8457L16.3975 8.31738Z" fill="white"/>
</g>
</svg>
