<svg width="23" height="23" viewBox="0 0 23 23" fill="none" xmlns="http://www.w3.org/2000/svg">
<path d="M4.27489 17.3995L10.1746 11.4998L4.27489 5.60011C4.10411 5.4233 4.00962 5.18648 4.01175 4.94068C4.01389 4.69487 4.11249 4.45973 4.28631 4.28591C4.46013 4.11209 4.69526 4.01349 4.94107 4.01136C5.18688 4.00922 5.4237 4.10372 5.60051 4.27449L11.5002 10.1742L17.3999 4.27449C17.4864 4.18495 17.5898 4.11353 17.7042 4.06439C17.8186 4.01526 17.9416 3.9894 18.0661 3.98832C18.1906 3.98723 18.314 4.01096 18.4292 4.05809C18.5444 4.10523 18.6491 4.17484 18.7371 4.26287C18.8252 4.35089 18.8948 4.45557 18.9419 4.57078C18.989 4.686 19.0128 4.80945 19.0117 4.93393C19.0106 5.05841 18.9847 5.18143 18.9356 5.29581C18.8865 5.41018 18.8151 5.51363 18.7255 5.60011L12.8258 11.4998L18.7255 17.3995C18.8151 17.486 18.8865 17.5894 18.9356 17.7038C18.9847 17.8182 19.0106 17.9412 19.0117 18.0657C19.0128 18.1902 18.989 18.3136 18.9419 18.4288C18.8948 18.544 18.8252 18.6487 18.7371 18.7367C18.6491 18.8248 18.5444 18.8944 18.4292 18.9415C18.314 18.9886 18.1906 19.0124 18.0661 19.0113C17.9416 19.0102 17.8186 18.9843 17.7042 18.9352C17.5898 18.8861 17.4864 18.8147 17.3999 18.7251L11.5002 12.8254L5.60051 18.7251C5.4237 18.8959 5.18688 18.9904 4.94107 18.9882C4.69526 18.9861 4.46013 18.8875 4.28631 18.7137C4.11249 18.5399 4.01389 18.3047 4.01175 18.0589C4.00962 17.8131 4.10411 17.5763 4.27489 17.3995Z" fill="#17161A"/>
</svg>
