<svg width="12" height="8" viewBox="0 0 12 8" fill="none" xmlns="http://www.w3.org/2000/svg">
<path d="M6.76846 0.358992C6.67142 0.25158 6.55293 0.165718 6.42064 0.106952C6.28836 0.0481854 6.14521 0.0178223 6.00046 0.0178223C5.85571 0.0178223 5.71256 0.0481854 5.58027 0.106952C5.44799 0.165718 5.3295 0.25158 5.23246 0.358992L0.23246 6.35899C0.110544 6.50497 0.0327884 6.6827 0.00831427 6.87131C-0.0161599 7.05993 0.0136626 7.25161 0.0942832 7.42387C0.174904 7.59614 0.302979 7.74184 0.463483 7.84388C0.623987 7.94592 0.810264 8.00008 1.00046 7.99999H11.0005C11.1907 8.00008 11.3769 7.94592 11.5374 7.84388C11.6979 7.74184 11.826 7.59614 11.9066 7.42387C11.9873 7.25161 12.0171 7.05993 11.9926 6.87131C11.9681 6.6827 11.8904 6.50497 11.7685 6.35899L6.76846 0.358992ZM3.13546 5.99999L6.00046 2.56299L8.86546 5.99999H3.13546Z" fill="white"/>
</svg>
