<svg width="12" height="8" viewBox="0 0 12 8" fill="none" xmlns="http://www.w3.org/2000/svg">
<path d="M11.0005 1.05478e-07H1.00046C0.810264 -8.72343e-05 0.623987 0.0540675 0.463483 0.156111C0.302979 0.258154 0.174904 0.403854 0.0942832 0.576118C0.0136626 0.748381 -0.0161599 0.940064 0.00831427 1.12868C0.0327884 1.31729 0.110544 1.49502 0.23246 1.641L5.23246 7.641C5.32631 7.75354 5.44375 7.84408 5.57646 7.90621C5.70917 7.96834 5.85392 8.00055 6.00046 8.00055C6.147 8.00055 6.29174 7.96834 6.42446 7.90621C6.55717 7.84408 6.67461 7.75354 6.76846 7.641L11.7685 1.641C11.8904 1.49502 11.9681 1.31729 11.9926 1.12868C12.0171 0.940064 11.9873 0.748381 11.9066 0.576118C11.826 0.403854 11.6979 0.258154 11.5374 0.156111C11.3769 0.0540675 11.1907 -8.72343e-05 11.0005 1.05478e-07ZM6.00046 5.438L3.13546 2H8.86546L6.00046 5.438Z" fill="#2E2E2E"/>
</svg>
