<svg width="22" height="22" viewBox="0 0 22 22" fill="none" xmlns="http://www.w3.org/2000/svg">
<path d="M0 21V7.00004C1.12086e-05 6.85585 0.0312062 6.71336 0.0914459 6.58235C0.151686 6.45134 0.239545 6.33491 0.349 6.24104L7.349 0.241042C7.53013 0.086113 7.76065 0.000976562 7.999 0.000976562C8.23735 0.000976562 8.46787 0.086113 8.649 0.241042L15.649 6.24104C15.7588 6.33473 15.8471 6.45107 15.9076 6.58209C15.9682 6.71311 15.9997 6.85569 16 7.00004V14C16 14.2653 15.8946 14.5196 15.7071 14.7071C15.5196 14.8947 15.2652 15 15 15C14.7348 15 14.4804 14.8947 14.2929 14.7071C14.1054 14.5196 14 14.2653 14 14V7.46004L8 2.31704L2 7.46004V20H14C14.2652 20 14.5196 20.1054 14.7071 20.2929C14.8946 20.4805 15 20.7348 15 21C15 21.2653 14.8946 21.5196 14.7071 21.7071C14.5196 21.8947 14.2652 22 14 22H1C0.734784 22 0.48043 21.8947 0.292893 21.7071C0.105357 21.5196 0 21.2653 0 21ZM6 8.00004C6 8.39561 6.1173 8.78228 6.33706 9.11118C6.55682 9.44008 6.86918 9.69643 7.23463 9.8478C7.60009 9.99918 8.00222 10.0388 8.39018 9.96161C8.77814 9.88444 9.13451 9.69396 9.41421 9.41426C9.69392 9.13455 9.8844 8.77818 9.96157 8.39022C10.0387 8.00226 9.99913 7.60013 9.84776 7.23468C9.69638 6.86922 9.44004 6.55687 9.11114 6.3371C8.78224 6.11734 8.39556 6.00004 8 6.00004C7.46957 6.00004 6.96086 6.21076 6.58579 6.58583C6.21071 6.9609 6 7.46961 6 8.00004ZM22 18C22 17.7348 21.8946 17.4805 21.7071 17.2929C21.5196 17.1054 21.2652 17 21 17H19V15C19 14.7348 18.8946 14.4805 18.7071 14.2929C18.5196 14.1054 18.2652 14 18 14C17.7348 14 17.4804 14.1054 17.2929 14.2929C17.1054 14.4805 17 14.7348 17 15V17H15C14.7348 17 14.4804 17.1054 14.2929 17.2929C14.1054 17.4805 14 17.7348 14 18C14 18.2653 14.1054 18.5196 14.2929 18.7071C14.4804 18.8947 14.7348 19 15 19H17V21C17 21.2653 17.1054 21.5196 17.2929 21.7071C17.4804 21.8947 17.7348 22 18 22C18.2652 22 18.5196 21.8947 18.7071 21.7071C18.8946 21.5196 19 21.2653 19 21V19H21C21.2652 19 21.5196 18.8947 21.7071 18.7071C21.8946 18.5196 22 18.2653 22 18Z" fill="black"/>
</svg>
