<svg width="23" height="22" viewBox="0 0 23 22" fill="none" xmlns="http://www.w3.org/2000/svg">
<path d="M20.9983 11H18.3333L17.9983 5.934C17.9815 5.68039 17.8688 5.44268 17.683 5.26919C17.4973 5.0957 17.2524 4.99945 16.9983 5H14.9983C14.9983 3.67392 14.4715 2.40215 13.5338 1.46447C12.5961 0.526784 11.3244 0 9.99827 0C8.67219 0 7.40042 0.526784 6.46274 1.46447C5.52506 2.40215 4.99827 3.67392 4.99827 5H2.99827C2.74411 4.99945 2.49926 5.0957 2.31352 5.26919C2.12777 5.44268 2.01505 5.68039 1.99827 5.934L0.998274 20.934C0.989228 21.0708 1.00839 21.2079 1.05458 21.337C1.10077 21.466 1.17299 21.5842 1.26677 21.6842C1.36055 21.7841 1.47387 21.8638 1.59971 21.9181C1.72555 21.9724 1.86121 22.0003 1.99827 22H21.9983C22.1389 22 22.2779 21.9704 22.4063 21.913C22.5347 21.8556 22.6495 21.7719 22.7433 21.6671C22.8371 21.5624 22.9078 21.439 22.9507 21.3051C22.9936 21.1712 23.0077 21.0298 22.9923 20.89L21.9923 11.89C21.9652 11.6453 21.8488 11.4192 21.6654 11.255C21.482 11.0908 21.2445 11 20.9983 11ZM9.99827 2C10.7939 2 11.557 2.31607 12.1196 2.87868C12.6822 3.44129 12.9983 4.20435 12.9983 5H6.99827C6.99827 4.20435 7.31434 3.44129 7.87695 2.87868C8.43956 2.31607 9.20263 2 9.99827 2ZM3.06727 20L3.93327 7H4.99827V9C4.99827 9.26522 5.10363 9.51957 5.29117 9.70711C5.4787 9.89464 5.73306 10 5.99827 10C6.26349 10 6.51784 9.89464 6.70538 9.70711C6.89292 9.51957 6.99827 9.26522 6.99827 9V7H12.9983V9C12.9983 9.26522 13.1036 9.51957 13.2912 9.70711C13.4787 9.89464 13.7331 10 13.9983 10C14.2635 10 14.5178 9.89464 14.7054 9.70711C14.8929 9.51957 14.9983 9.26522 14.9983 9V7H16.0623L16.9293 20H3.06727ZM18.9333 20L18.4673 13H20.1033L20.8813 20H18.9333Z" fill="white"/>
</svg>
