<svg width="22" height="22" viewBox="0 0 22 22" fill="none" xmlns="http://www.w3.org/2000/svg">
<path d="M0 20.9991V6.99907C1.12086e-05 6.85487 0.0312062 6.71239 0.0914459 6.58138C0.151686 6.45037 0.239545 6.33394 0.349 6.24007L7.349 0.240066C7.53013 0.0851364 7.76065 0 7.999 0C8.23735 0 8.46787 0.0851364 8.649 0.240066L15.649 6.24007C15.7588 6.33375 15.8471 6.4501 15.9076 6.58112C15.9682 6.71213 15.9997 6.85472 16 6.99907V13.9991C16 14.2643 15.8946 14.5186 15.7071 14.7062C15.5196 14.8937 15.2652 14.9991 15 14.9991C14.7348 14.9991 14.4804 14.8937 14.2929 14.7062C14.1054 14.5186 14 14.2643 14 13.9991V7.45907L8 2.31607L2 7.45907V19.9991H14C14.2652 19.9991 14.5196 20.1044 14.7071 20.292C14.8946 20.4795 15 20.7338 15 20.9991C15 21.2643 14.8946 21.5186 14.7071 21.7062C14.5196 21.8937 14.2652 21.9991 14 21.9991H1C0.734784 21.9991 0.48043 21.8937 0.292893 21.7062C0.105357 21.5186 0 21.2643 0 20.9991ZM6 7.99907C6 8.39463 6.1173 8.78131 6.33706 9.11021C6.55682 9.4391 6.86918 9.69545 7.23463 9.84682C7.60009 9.9982 8.00222 10.0378 8.39018 9.96064C8.77814 9.88347 9.13451 9.69298 9.41421 9.41328C9.69392 9.13357 9.8844 8.77721 9.96157 8.38925C10.0387 8.00128 9.99913 7.59915 9.84776 7.2337C9.69638 6.86825 9.44004 6.55589 9.11114 6.33613C8.78224 6.11636 8.39556 5.99907 8 5.99907C7.46957 5.99907 6.96086 6.20978 6.58579 6.58485C6.21071 6.95993 6 7.46863 6 7.99907ZM22 17.9991C22 17.7338 21.8946 17.4795 21.7071 17.292C21.5196 17.1044 21.2652 16.9991 21 16.9991H19V14.9991C19 14.7338 18.8946 14.4795 18.7071 14.292C18.5196 14.1044 18.2652 13.9991 18 13.9991C17.7348 13.9991 17.4804 14.1044 17.2929 14.292C17.1054 14.4795 17 14.7338 17 14.9991V16.9991H15C14.7348 16.9991 14.4804 17.1044 14.2929 17.292C14.1054 17.4795 14 17.7338 14 17.9991C14 18.2643 14.1054 18.5186 14.2929 18.7062C14.4804 18.8937 14.7348 18.9991 15 18.9991H17V20.9991C17 21.2643 17.1054 21.5186 17.2929 21.7062C17.4804 21.8937 17.7348 21.9991 18 21.9991C18.2652 21.9991 18.5196 21.8937 18.7071 21.7062C18.8946 21.5186 19 21.2643 19 20.9991V18.9991H21C21.2652 18.9991 21.5196 18.8937 21.7071 18.7062C21.8946 18.5186 22 18.2643 22 17.9991Z" fill="white"/>
</svg>
