<svg width="18" height="22" viewBox="0 0 18 22" fill="none" xmlns="http://www.w3.org/2000/svg">
<path d="M17 3C13.391 3 9.637 0.228 9.6 0.2C9.4269 0.0701779 9.21637 0 9 0C8.78363 0 8.5731 0.0701779 8.4 0.2C8.363 0.228 4.609 3 1 3C0.734784 3 0.48043 3.10536 0.292893 3.29289C0.105357 3.48043 0 3.73478 0 4C0 4.6 0.1 18.729 8.649 21.937C8.87486 22.0205 9.12314 22.0205 9.349 21.937C17.9 18.729 18 4.6 18 4C18 3.73478 17.8946 3.48043 17.7071 3.29289C17.5196 3.10536 17.2652 3 17 3ZM9 19.922C3.2 17.4 2.205 7.973 2.035 4.943C4.53061 4.5634 6.91008 3.63177 9 2.216C11.0899 3.63177 13.4694 4.5634 15.965 4.943C15.8 7.973 14.8 17.4 9 19.922ZM5 10C5 10.7911 5.2346 11.5645 5.67412 12.2223C6.11365 12.8801 6.73836 13.3928 7.46927 13.6955C8.20017 13.9983 9.00444 14.0775 9.78036 13.9231C10.5563 13.7688 11.269 13.3878 11.8284 12.8284C12.3878 12.269 12.7688 11.5563 12.9231 10.7804C13.0775 10.0044 12.9983 9.20017 12.6955 8.46927C12.3928 7.73836 11.8801 7.11365 11.2223 6.67412C10.5645 6.2346 9.79113 6 9 6C7.93913 6 6.92172 6.42143 6.17157 7.17157C5.42143 7.92172 5 8.93913 5 10ZM11 10C11 10.3956 10.8827 10.7822 10.6629 11.1111C10.4432 11.44 10.1308 11.6964 9.76537 11.8478C9.39991 11.9991 8.99778 12.0387 8.60982 11.9616C8.22186 11.8844 7.86549 11.6939 7.58579 11.4142C7.30608 11.1345 7.1156 10.7781 7.03843 10.3902C6.96126 10.0022 7.00087 9.60009 7.15224 9.23463C7.30362 8.86918 7.55996 8.55682 7.88886 8.33706C8.21776 8.1173 8.60444 8 9 8C9.53043 8 10.0391 8.21071 10.4142 8.58579C10.7893 8.96086 11 9.46957 11 10Z" fill="white"/>
</svg>
