<svg width="20" height="18" viewBox="0 0 20 18" fill="none" xmlns="http://www.w3.org/2000/svg">
<path d="M5.28125 3.58594L4.26172 6.5H15.7383L14.7188 3.58594C14.543 3.08594 14.0703 2.75 13.5391 2.75H6.46094C5.92969 2.75 5.45703 3.08594 5.28125 3.58594ZM1.54688 6.6875L2.92188 2.76172C3.44922 1.25781 4.86719 0.25 6.46094 0.25H13.5391C15.1328 0.25 16.5508 1.25781 17.0781 2.76172L18.4531 6.6875C19.3594 7.0625 20 7.95703 20 9V14.625V16.5C20 17.1914 19.4414 17.75 18.75 17.75H17.5C16.8086 17.75 16.25 17.1914 16.25 16.5V14.625H3.75V16.5C3.75 17.1914 3.19141 17.75 2.5 17.75H1.25C0.558594 17.75 0 17.1914 0 16.5V14.625V9C0 7.95703 0.640625 7.0625 1.54688 6.6875ZM5 10.25C5 9.55859 4.44141 9 3.75 9C3.05859 9 2.5 9.55859 2.5 10.25C2.5 10.9414 3.05859 11.5 3.75 11.5C4.44141 11.5 5 10.9414 5 10.25ZM16.25 11.5C16.9414 11.5 17.5 10.9414 17.5 10.25C17.5 9.55859 16.9414 9 16.25 9C15.5586 9 15 9.55859 15 10.25C15 10.9414 15.5586 11.5 16.25 11.5Z" fill="#818084"/>
</svg>
