<svg width="31" height="31" viewBox="0 0 31 31" fill="none" xmlns="http://www.w3.org/2000/svg">
<path d="M15.4994 0.916748C12.615 0.916748 9.79551 1.77205 7.39729 3.37448C4.99907 4.97692 3.12989 7.25453 2.02611 9.91928C0.922334 12.584 0.633536 15.5163 1.19624 18.3451C1.75894 21.174 3.14787 23.7725 5.18738 25.8121C7.2269 27.8516 9.8254 29.2405 12.6543 29.8032C15.4832 30.3659 18.4154 30.0771 21.0802 28.9733C23.7449 27.8696 26.0225 26.0004 27.625 23.6021C29.2274 21.2039 30.0827 18.3844 30.0827 15.5001C30.0827 13.585 29.7055 11.6886 28.9726 9.91928C28.2397 8.14995 27.1655 6.5423 25.8113 5.18811C24.4571 3.83392 22.8495 2.75972 21.0802 2.02684C19.3108 1.29396 17.4145 0.916748 15.4994 0.916748ZM12.4821 25.2534C10.8969 24.7616 9.45533 23.8913 8.28174 22.7177C7.10816 21.5441 6.23787 20.1025 5.74602 18.5174C6.66868 18.3421 7.62019 18.395 8.51773 18.6715C9.41527 18.948 10.2316 19.4397 10.8957 20.1037C11.5598 20.7678 12.0515 21.5842 12.328 22.4817C12.6044 23.3792 12.6574 24.3308 12.4821 25.2534ZM18.5166 25.2534C18.3414 24.3308 18.3943 23.3792 18.6707 22.4817C18.9472 21.5842 19.4389 20.7678 20.103 20.1037C20.7671 19.4397 21.5834 18.948 22.481 18.6715C23.3785 18.395 24.33 18.3421 25.2527 18.5174C24.7608 20.1025 23.8905 21.5441 22.717 22.7177C21.5434 23.8913 20.1018 24.7616 18.5166 25.2534ZM5.40769 14.0417C5.75638 11.6138 6.9687 9.39299 8.8223 7.78658C10.6759 6.18016 13.0465 5.29586 15.4994 5.29586C17.9522 5.29586 20.3228 6.18016 22.1764 7.78658C24.03 9.39299 25.2423 11.6138 25.591 14.0417H5.40769Z" fill="white"/>
</svg>
