<svg width="743" height="1143" viewBox="0 0 743 1143" fill="none" xmlns="http://www.w3.org/2000/svg">
<path d="M214.312 571.5C214.312 374.154 374.154 214.312 571.5 214.312C768.846 214.312 928.688 374.154 928.688 571.5C928.688 768.846 768.846 928.688 571.5 928.688C374.154 928.688 214.312 768.846 214.312 571.5ZM852.115 625.525C855.464 607.888 857.25 590.029 857.25 571.5C857.25 489.347 822.647 415.454 767.283 363.215L682.005 480.864C702.097 505.42 714.375 537.121 714.375 571.5C714.375 574.625 712.366 577.528 714.152 580.43L852.115 625.525ZM691.828 648.295C672.629 678.433 642.491 700.757 606.995 707.901L605.21 855.018C705.892 842.739 789.161 780.008 830.014 693.39L691.828 648.295ZM533.772 855.018L535.558 707.901C500.286 700.757 470.148 678.433 451.172 648.295L312.986 693.39C353.839 780.008 436.885 842.739 533.772 855.018ZM428.848 580.43C428.625 577.528 428.625 574.625 428.625 571.5C428.625 537.121 440.903 505.42 460.995 480.864L375.717 363.215C320.353 415.454 285.75 489.347 285.75 569.491C285.75 590.029 287.536 607.888 290.885 625.525L428.848 580.43ZM518.815 438.671C535.112 432.197 552.971 428.625 571.5 428.625C590.029 428.625 607.888 432.197 624.185 438.671L709.464 321.245C668.61 298.698 621.506 285.75 571.5 285.75C521.494 285.75 474.39 298.698 433.536 321.245L518.815 438.671ZM571.5 500.062C531.986 500.062 500.062 531.986 500.062 571.5C500.062 611.014 531.986 642.938 571.5 642.938C611.014 642.938 642.938 611.014 642.938 571.5C642.938 531.986 611.014 500.062 571.5 500.062ZM1143 571.5C1143 887.164 887.164 1143 571.5 1143C255.836 1143 0 887.164 0 571.5C0 255.836 255.836 0 571.5 0C887.164 0 1143 255.836 1143 571.5ZM571.5 71.4375C295.349 71.4375 71.4375 295.349 71.4375 571.5C71.4375 847.651 295.349 1071.56 571.5 1071.56C847.651 1071.56 1071.56 847.651 1071.56 571.5C1071.56 295.349 847.651 71.4375 571.5 71.4375Z" fill="#C9161D"/>
</svg>
