<svg width="22" height="19" viewBox="0 0 22 19" fill="none" xmlns="http://www.w3.org/2000/svg">
<path d="M0.293005 10.7071C0.200361 10.614 0.126964 10.5035 0.077005 10.3821C0.0261795 10.2611 0 10.1313 0 10.0001C0 9.86889 0.0261795 9.73902 0.077005 9.61808C0.126964 9.49661 0.200361 9.38618 0.293005 9.29308L8.293 1.29308C8.38525 1.19757 8.4956 1.12139 8.6176 1.06898C8.7396 1.01657 8.87082 0.988985 9.0036 0.987831C9.13638 0.986677 9.26806 1.01198 9.39096 1.06226C9.51385 1.11254 9.62551 1.18679 9.7194 1.28069C9.81329 1.37458 9.88755 1.48623 9.93783 1.60913C9.98811 1.73202 10.0134 1.8637 10.0123 1.99648C10.0111 2.12926 9.98352 2.26048 9.93111 2.38249C9.8787 2.50449 9.80252 2.61483 9.707 2.70708L3.41401 9.00008H21C21.2652 9.00008 21.5196 9.10544 21.7071 9.29297C21.8946 9.48051 22 9.73486 22 10.0001C22 10.2653 21.8946 10.5197 21.7071 10.7072C21.5196 10.8947 21.2652 11.0001 21 11.0001H3.41401L9.707 17.2931C9.88916 17.4817 9.98996 17.7343 9.98768 17.9965C9.9854 18.2587 9.88023 18.5095 9.69482 18.6949C9.50941 18.8803 9.2586 18.9855 8.99641 18.9878C8.73421 18.99 8.48161 18.8892 8.293 18.7071L0.293005 10.7071Z" fill="black"/>
</svg>
