<svg width="22" height="18" viewBox="0 0 22 18" fill="none" xmlns="http://www.w3.org/2000/svg">
<path d="M13.707 17.7069C13.5184 17.8891 13.2658 17.9899 13.0036 17.9876C12.7414 17.9853 12.4906 17.8801 12.3052 17.6947C12.1198 17.5093 12.0146 17.2585 12.0123 16.9963C12.01 16.7341 12.1108 16.4815 12.293 16.2929L18.586 9.99992H1C0.734784 9.99992 0.48043 9.89456 0.292893 9.70703C0.105357 9.51949 0 9.26514 0 8.99992C0 8.7347 0.105357 8.48035 0.292893 8.29281C0.48043 8.10528 0.734784 7.99992 1 7.99992H18.586L12.293 1.70692C12.1108 1.51832 12.01 1.26571 12.0123 1.00352C12.0146 0.741321 12.1198 0.490508 12.3052 0.3051C12.4906 0.119692 12.7414 0.0145233 13.0036 0.0122448C13.2658 0.00996641 13.5184 0.110761 13.707 0.292919L21.707 8.29292C21.7996 8.38602 21.873 8.49645 21.923 8.61792C21.9738 8.73886 22 8.86873 22 8.99992C22 9.13111 21.9738 9.26098 21.923 9.38192C21.873 9.50339 21.7996 9.61382 21.707 9.70692L13.707 17.7069Z" fill="black"/>
</svg>
