<svg width="33" height="25" viewBox="0 0 33 25" fill="none" xmlns="http://www.w3.org/2000/svg">
<path d="M31.084 0.833496H1.91732C1.53054 0.833496 1.15961 0.987142 0.88612 1.26063C0.61263 1.53412 0.458984 1.90506 0.458984 2.29183V22.7085C0.458984 23.0953 0.61263 23.4662 0.88612 23.7397C1.15961 24.0132 1.53054 24.1668 1.91732 24.1668H31.084C31.4708 24.1668 31.8417 24.0132 32.1152 23.7397C32.3887 23.4662 32.5423 23.0953 32.5423 22.7085V2.29183C32.5423 1.90506 32.3887 1.53412 32.1152 1.26063C31.8417 0.987142 31.4708 0.833496 31.084 0.833496ZM29.6257 18.6018C29.0151 18.8185 28.4605 19.1687 28.0023 19.6268C27.5442 20.085 27.194 20.6396 26.9773 21.2502H6.02398C5.80729 20.6396 5.45712 20.085 4.99897 19.6268C4.54083 19.1687 3.98625 18.8185 3.37565 18.6018V6.3985C3.98625 6.1818 4.54083 5.83163 4.99897 5.37349C5.45712 4.91534 5.80729 4.36077 6.02398 3.75016H26.9773C27.194 4.36077 27.5442 4.91534 28.0023 5.37349C28.4605 5.83163 29.0151 6.1818 29.6257 6.3985V18.6018ZM16.5007 6.66683C15.3469 6.66683 14.2191 7.00895 13.2598 7.64992C12.3005 8.2909 11.5529 9.20194 11.1114 10.2678C10.6698 11.3337 10.5543 12.5066 10.7794 13.6382C11.0045 14.7697 11.5601 15.8091 12.3759 16.625C13.1917 17.4408 14.2311 17.9963 15.3626 18.2214C16.4942 18.4465 17.6671 18.331 18.733 17.8895C19.7989 17.4479 20.7099 16.7003 21.3509 15.741C21.9919 14.7817 22.334 13.6539 22.334 12.5002C22.334 10.9531 21.7194 9.46933 20.6254 8.37537C19.5315 7.28141 18.0477 6.66683 16.5007 6.66683ZM16.5007 15.4168C15.9238 15.4168 15.3599 15.2458 14.8802 14.9253C14.4006 14.6048 14.0268 14.1493 13.806 13.6163C13.5852 13.0834 13.5275 12.4969 13.64 11.9311C13.7526 11.3654 14.0304 10.8457 14.4383 10.4378C14.8462 10.0299 15.3659 9.75208 15.9316 9.63954C16.4974 9.527 17.0839 9.58476 17.6168 9.80551C18.1498 10.0263 18.6053 10.4001 18.9258 10.8797C19.2463 11.3594 19.4173 11.9233 19.4173 12.5002C19.4173 13.2737 19.11 14.0156 18.563 14.5626C18.0161 15.1095 17.2742 15.4168 16.5007 15.4168ZM9.20899 12.5002C9.20899 12.8869 9.05534 13.2579 8.78185 13.5314C8.50836 13.8048 8.13743 13.9585 7.75065 13.9585H6.29232C5.90554 13.9585 5.53461 13.8048 5.26112 13.5314C4.98763 13.2579 4.83398 12.8869 4.83398 12.5002C4.83398 12.1134 4.98763 11.7425 5.26112 11.469C5.53461 11.1955 5.90554 11.0418 6.29232 11.0418H7.75065C8.13743 11.0418 8.50836 11.1955 8.78185 11.469C9.05534 11.7425 9.20899 12.1134 9.20899 12.5002ZM28.1673 12.5002C28.1673 12.8869 28.0137 13.2579 27.7402 13.5314C27.4667 13.8048 27.0958 13.9585 26.709 13.9585H25.2507C24.8639 13.9585 24.4929 13.8048 24.2195 13.5314C23.946 13.2579 23.7923 12.8869 23.7923 12.5002C23.7923 12.1134 23.946 11.7425 24.2195 11.469C24.4929 11.1955 24.8639 11.0418 25.2507 11.0418H26.709C27.0958 11.0418 27.4667 11.1955 27.7402 11.469C28.0137 11.7425 28.1673 12.1134 28.1673 12.5002Z" fill="white"/>
</svg>
