<svg width="33" height="27" viewBox="0 0 33 27" fill="none" xmlns="http://www.w3.org/2000/svg">
<path d="M32.5412 12.0418C32.5383 13.3213 32.2002 14.5778 31.5605 15.686C30.9209 16.7941 30.0019 17.7154 28.8954 18.3578C28.5606 18.5481 28.1641 18.5983 27.7925 18.4974C27.4208 18.3965 27.1042 18.1527 26.9116 17.8192C26.7191 17.4857 26.6662 17.0896 26.7647 16.7173C26.8631 16.345 27.1048 16.0267 27.437 15.832C28.2718 15.3507 28.9243 14.6074 29.2933 13.7173C29.6623 12.8273 29.7272 11.8403 29.4778 10.9096C29.2285 9.97891 28.6789 9.15655 27.9143 8.57018C27.1498 7.98382 26.213 7.66625 25.2495 7.66676C24.7513 7.67384 24.258 7.76658 23.7912 7.94093C23.4317 8.06869 23.0364 8.05047 22.6902 7.89016C22.3439 7.72985 22.0743 7.44024 21.9391 7.08343C21.5223 5.97542 20.7793 5.01986 19.8081 4.3429C18.837 3.66595 17.6833 3.29944 16.4995 3.29176C15.3133 3.28893 14.1549 3.6513 13.1817 4.32965C12.2085 5.008 11.4677 5.96946 11.0599 7.08343C10.9248 7.44024 10.6552 7.72985 10.3089 7.89016C9.96267 8.05047 9.56739 8.06869 9.20786 7.94093C8.74118 7.76619 8.24781 7.67343 7.74953 7.66676C6.78555 7.66569 5.8482 7.98303 5.08311 8.56947C4.31803 9.15592 3.76806 9.97863 3.51864 10.9098C3.26922 11.841 3.33432 12.8284 3.70384 13.7188C4.07335 14.6091 4.72658 15.3525 5.56203 15.8334C5.72922 15.9285 5.87596 16.0557 5.9938 16.2077C6.11163 16.3597 6.19824 16.5335 6.24863 16.7191C6.29902 16.9047 6.3122 17.0984 6.28741 17.2892C6.26262 17.4799 6.20035 17.6638 6.10419 17.8304C6.00802 17.9969 5.87986 18.1428 5.72708 18.2596C5.57431 18.3765 5.39993 18.4619 5.21399 18.5111C5.02806 18.5602 4.83423 18.5721 4.64368 18.5461C4.45313 18.52 4.26961 18.4565 4.1037 18.3593C2.71224 17.5573 1.62448 16.3184 1.00929 14.8349C0.394099 13.3513 0.2859 11.7062 0.70149 10.1549C1.11708 8.60358 2.03321 7.23286 3.30764 6.25556C4.58208 5.27826 6.14351 4.74905 7.74953 4.7501C8.13224 4.75009 8.51426 4.78278 8.89141 4.8478C9.64613 3.49216 10.7494 2.36279 12.087 1.57655C13.4246 0.790301 14.948 0.375732 16.4995 0.375732C18.0511 0.375732 19.5745 0.790301 20.9121 1.57655C22.2497 2.36279 23.3529 3.49216 24.1077 4.8478C24.4848 4.78278 24.8668 4.75009 25.2495 4.7501C27.1827 4.75241 29.036 5.52138 30.403 6.88833C31.7699 8.25528 32.5389 10.1086 32.5412 12.0418ZM9.20786 17.8751C9.59464 17.8751 9.96557 17.7215 10.2391 17.448C10.5126 17.1745 10.6662 16.8035 10.6662 16.4168V13.5001C10.6662 13.1133 10.5126 12.7424 10.2391 12.4689C9.96557 12.1954 9.59464 12.0418 9.20786 12.0418C8.82109 12.0418 8.45016 12.1954 8.17667 12.4689C7.90318 12.7424 7.74953 13.1133 7.74953 13.5001V16.4168C7.74953 16.8035 7.90318 17.1745 8.17667 17.448C8.45016 17.7215 8.82109 17.8751 9.20786 17.8751ZM7.74953 25.1668C7.74953 25.5535 7.90318 25.9245 8.17667 26.198C8.45016 26.4715 8.82109 26.6251 9.20786 26.6251C9.59464 26.6251 9.96557 26.4715 10.2391 26.198C10.5126 25.9245 10.6662 25.5535 10.6662 25.1668V22.2501C10.6662 21.8633 10.5126 21.4924 10.2391 21.2189C9.96557 20.9454 9.59464 20.7918 9.20786 20.7918C8.82109 20.7918 8.45016 20.9454 8.17667 21.2189C7.90318 21.4924 7.74953 21.8633 7.74953 22.2501V25.1668ZM23.7912 17.8751C24.178 17.8751 24.5489 17.7215 24.8224 17.448C25.0959 17.1745 25.2495 16.8035 25.2495 16.4168V13.5001C25.2495 13.1133 25.0959 12.7424 24.8224 12.4689C24.5489 12.1954 24.178 12.0418 23.7912 12.0418C23.4044 12.0418 23.0335 12.1954 22.76 12.4689C22.4865 12.7424 22.3329 13.1133 22.3329 13.5001V16.4168C22.3329 16.8035 22.4865 17.1745 22.76 17.448C23.0335 17.7215 23.4044 17.8751 23.7912 17.8751ZM22.3329 25.1668C22.3329 25.5535 22.4865 25.9245 22.76 26.198C23.0335 26.4715 23.4044 26.6251 23.7912 26.6251C24.178 26.6251 24.5489 26.4715 24.8224 26.198C25.0959 25.9245 25.2495 25.5535 25.2495 25.1668V22.2501C25.2495 21.8633 25.0959 21.4924 24.8224 21.2189C24.5489 20.9454 24.178 20.7918 23.7912 20.7918C23.4044 20.7918 23.0335 20.9454 22.76 21.2189C22.4865 21.4924 22.3329 21.8633 22.3329 22.2501V25.1668ZM16.4995 13.5001C16.8863 13.5001 17.2572 13.3464 17.5307 13.073C17.8042 12.7995 17.9579 12.4285 17.9579 12.0418V9.1251C17.9579 8.73832 17.8042 8.36739 17.5307 8.0939C17.2572 7.82041 16.8863 7.66676 16.4995 7.66676C16.1128 7.66676 15.7418 7.82041 15.4683 8.0939C15.1948 8.36739 15.0412 8.73832 15.0412 9.1251V12.0418C15.0412 12.4285 15.1948 12.7995 15.4683 13.073C15.7418 13.3464 16.1128 13.5001 16.4995 13.5001ZM15.0412 20.7918C15.0412 21.1785 15.1948 21.5495 15.4683 21.823C15.7418 22.0965 16.1128 22.2501 16.4995 22.2501C16.8863 22.2501 17.2572 22.0965 17.5307 21.823C17.8042 21.5495 17.9579 21.1785 17.9579 20.7918V17.8751C17.9579 17.4883 17.8042 17.1174 17.5307 16.8439C17.2572 16.5704 16.8863 16.4168 16.4995 16.4168C16.1128 16.4168 15.7418 16.5704 15.4683 16.8439C15.1948 17.1174 15.0412 17.4883 15.0412 17.8751V20.7918Z" fill="white"/>
</svg>
