<svg width="27" height="33" viewBox="0 0 27 33" fill="none" xmlns="http://www.w3.org/2000/svg">
<path d="M25.1667 3.37516C25.5534 3.37516 25.9244 3.22152 26.1979 2.94803C26.4714 2.67454 26.625 2.3036 26.625 1.91683C26.625 1.53006 26.4714 1.15912 26.1979 0.885632C25.9244 0.612141 25.5534 0.458496 25.1667 0.458496H1.83333C1.44656 0.458496 1.07563 0.612141 0.802136 0.885632C0.528645 1.15912 0.375 1.53006 0.375 1.91683C0.375 2.3036 0.528645 2.67454 0.802136 2.94803C1.07563 3.22152 1.44656 3.37516 1.83333 3.37516H3.36312C3.57604 6.05266 4.44667 11.7606 8.02104 15.0418C4.25125 18.7037 3.48417 26.3206 3.33104 29.6252H1.83333C1.44656 29.6252 1.07563 29.7788 0.802136 30.0523C0.528645 30.3258 0.375 30.6967 0.375 31.0835C0.375 31.4703 0.528645 31.8412 0.802136 32.1147C1.07563 32.3882 1.44656 32.5418 1.83333 32.5418H25.1667C25.5534 32.5418 25.9244 32.3882 26.1979 32.1147C26.4714 31.8412 26.625 31.4703 26.625 31.0835C26.625 30.6967 26.4714 30.3258 26.1979 30.0523C25.9244 29.7788 25.5534 29.6252 25.1667 29.6252H23.669C23.5158 26.3235 22.7488 18.7066 18.979 15.0418C22.5533 11.7577 23.424 6.04975 23.6369 3.37516H25.1667ZM15.8042 13.7672C15.5725 13.8959 15.3802 14.0853 15.2481 14.315C15.116 14.5447 15.0489 14.8061 15.0542 15.071C15.0594 15.336 15.1368 15.5945 15.2779 15.8188C15.419 16.0431 15.6186 16.2247 15.8552 16.3441C19.4092 18.135 20.5219 25.5477 20.7479 29.6252H6.25208C6.47229 25.5418 7.59083 18.135 11.1448 16.3441C11.3814 16.2247 11.581 16.0431 11.7221 15.8188C11.8632 15.5945 11.9406 15.336 11.9458 15.071C11.9511 14.8061 11.884 14.5447 11.7519 14.315C11.6198 14.0853 11.4275 13.8959 11.1958 13.7672C7.49313 11.7125 6.53938 6.06433 6.29292 3.37516H20.7071C20.4606 6.06433 19.5069 11.7125 15.8042 13.7672ZM13.5 17.9585C13.5 17.9585 17.875 21.4585 17.875 23.2085V28.1668H9.125V23.2085C9.125 21.4585 13.5 17.9585 13.5 17.9585Z" fill="white"/>
</svg>
