<svg width="20" height="20" viewBox="0 0 20 20" fill="none" xmlns="http://www.w3.org/2000/svg">
<path d="M11.25 10C11.25 10.6914 10.6914 11.25 10 11.25C9.30859 11.25 8.75 10.6914 8.75 10C8.75 9.30859 9.30859 8.75 10 8.75C10.6914 8.75 11.25 9.30859 11.25 10ZM12.1055 11.3438L14.5234 12.1328C13.8086 13.6484 12.3516 14.7461 10.5898 14.9609L10.6211 12.3867C11.2422 12.2617 11.7695 11.8711 12.1055 11.3438ZM12.5 10C12.5 9.39844 12.2852 8.84375 11.9336 8.41406L13.4258 6.35547C14.3945 7.26953 15 8.5625 15 10C15 10.3242 14.9688 10.6367 14.9102 10.9453L12.4961 10.1562C12.4648 10.1055 12.5 10.0547 12.5 10ZM10.9219 7.67578C10.6367 7.5625 10.3242 7.5 10 7.5C9.67578 7.5 9.36328 7.5625 9.07812 7.67578L7.58594 5.62109C8.30078 5.22656 9.125 5 9.96484 5C10.875 5 11.6992 5.22656 12.4141 5.62109L10.9219 7.67578ZM8.06641 8.41406C7.71484 8.84375 7.5 9.39844 7.5 10C7.5 10.0547 7.5 10.1055 7.50391 10.1562L5.08984 10.9453C5.03125 10.6367 5 10.3242 5 9.96484C5 8.5625 5.60547 7.26953 6.57422 6.35547L8.06641 8.41406ZM9.37109 12.3867L9.33984 14.9609C7.64453 14.7461 6.19141 13.6484 5.47656 12.1328L7.89453 11.3438C8.22656 11.8711 8.75391 12.2617 9.37109 12.3867ZM0 10C0 4.47656 4.47656 0 10 0C15.5234 0 20 4.47656 20 10C20 15.5234 15.5234 20 10 20C4.47656 20 0 15.5234 0 10ZM10 16.25C13.4531 16.25 16.25 13.4531 16.25 10C16.25 6.54688 13.4531 3.75 10 3.75C6.54688 3.75 3.75 6.54688 3.75 10C3.75 13.4531 6.54688 16.25 10 16.25Z" fill="#A61C20"/>
</svg>
